<svg width="41" height="40" viewBox="0 0 41 40" fill="none" xmlns="http://www.w3.org/2000/svg">
<path d="M31.7275 8.33331L36.7372 3.33331" stroke="#E77625" stroke-width="2.5" stroke-linecap="round" stroke-linejoin="round"/>
<path d="M3.33984 36.6667L8.34948 31.6667" stroke="#E77625" stroke-width="2.5" stroke-linecap="round" stroke-linejoin="round"/>
<path d="M10.5204 33.8333C10.8928 34.2062 11.3352 34.5021 11.8223 34.704C12.3095 34.9059 12.8318 35.0098 13.3592 35.0098C13.8867 35.0098 14.409 34.9059 14.8961 34.704C15.3833 34.5021 15.8257 34.2062 16.198 33.8333L20.0387 30L10.0195 20L6.17875 23.8333C5.80513 24.2049 5.50868 24.6465 5.3064 25.1327C5.10412 25.6189 5 26.1402 5 26.6667C5 27.1931 5.10412 27.7144 5.3064 28.2006C5.50868 28.6868 5.80513 29.1284 6.17875 29.5L10.5204 33.8333Z" stroke="#E77625" stroke-width="2.5" stroke-linecap="round" stroke-linejoin="round"/>
<path d="M12.5244 22.5L16.6991 18.3333" stroke="#E77625" stroke-width="2.5" stroke-linecap="round" stroke-linejoin="round"/>
<path d="M17.5342 27.5L21.7089 23.3333" stroke="#E77625" stroke-width="2.5" stroke-linecap="round" stroke-linejoin="round"/>
<path d="M20.0381 9.99999L30.0574 20L33.8981 16.1667C34.2717 15.795 34.5681 15.3535 34.7704 14.8673C34.9727 14.3811 35.0768 13.8598 35.0768 13.3333C35.0768 12.8069 34.9727 12.2856 34.7704 11.7994C34.5681 11.3132 34.2717 10.8716 33.8981 10.5L29.5564 6.16666C29.1841 5.79375 28.7416 5.49787 28.2545 5.29599C27.7674 5.0941 27.2451 4.99017 26.7176 4.99017C26.1901 4.99017 25.6678 5.0941 25.1807 5.29599C24.6936 5.49787 24.2511 5.79375 23.8788 6.16666L20.0381 9.99999Z" stroke="#E77625" stroke-width="2.5" stroke-linecap="round" stroke-linejoin="round"/>
</svg>
