<svg width="40" height="40" viewBox="0 0 40 40" fill="none" xmlns="http://www.w3.org/2000/svg">
<path d="M28.5835 32.355C28.1135 32.355 27.6627 32.1683 27.3303 31.8359C26.998 31.5036 26.8113 31.0528 26.8113 30.5828V27.0383C26.8113 26.0983 27.1847 25.1968 27.8494 24.532C28.5141 23.8673 29.4156 23.4939 30.3557 23.4939H33.9001C34.8401 23.4939 35.7416 23.8673 36.4064 24.532C37.0711 25.1968 37.4445 26.0983 37.4445 27.0383V30.5828C37.4445 31.0528 37.2578 31.5036 36.9254 31.8359C36.5931 32.1683 36.1423 32.355 35.6723 32.355H28.5835Z" stroke="#E77625" stroke-width="2.5" stroke-linecap="round" stroke-linejoin="round"/>
<path d="M28.5833 35.8995V32.3551" stroke="#E77625" stroke-width="2.5" stroke-linecap="round" stroke-linejoin="round"/>
<path d="M32.128 23.4944V10.2028C32.128 8.5577 31.4745 6.98 30.3112 5.81675C29.148 4.65351 27.5703 4 25.9252 4C24.2802 4 22.7025 4.65351 21.5393 5.81675C20.376 6.98 19.7225 8.5577 19.7225 10.2028V29.6972C19.7225 31.3423 19.069 32.92 17.9058 34.0832C16.7426 35.2465 15.1649 35.9 13.5198 35.9C11.8748 35.9 10.2971 35.2465 9.13387 34.0832C7.97064 32.92 7.31714 31.3423 7.31714 29.6972V16.4056" stroke="#E77625" stroke-width="2.5" stroke-linecap="round" stroke-linejoin="round"/>
<path d="M35.6716 35.8995V32.3551" stroke="#E77625" stroke-width="2.5" stroke-linecap="round" stroke-linejoin="round"/>
<path d="M3.77173 7.54444V4" stroke="#E77625" stroke-width="2.5" stroke-linecap="round" stroke-linejoin="round"/>
<path d="M5.5444 16.4058C4.60437 16.4058 3.70284 16.0324 3.03813 15.3676C2.37343 14.7029 2 13.8014 2 12.8613V9.3169C2 8.84688 2.18671 8.39611 2.51907 8.06375C2.85142 7.73139 3.30218 7.54468 3.7722 7.54468H10.861C11.331 7.54468 11.7818 7.73139 12.1141 8.06375C12.4465 8.39611 12.6332 8.84688 12.6332 9.3169V12.8613C12.6332 13.8014 12.2598 14.7029 11.5951 15.3676C10.9304 16.0324 10.0288 16.4058 9.0888 16.4058H5.5444Z" stroke="#E77625" stroke-width="2.5" stroke-linecap="round" stroke-linejoin="round"/>
<path d="M10.8611 7.54444V4" stroke="#E77625" stroke-width="2.5" stroke-linecap="round" stroke-linejoin="round"/>
</svg>
