<svg width="1727" height="286" viewBox="0 0 1727 286" fill="none" xmlns="http://www.w3.org/2000/svg">
<path d="M1528.33 110.223L1534.11 104.45L1528.33 98.6764L1522.56 104.45L1528.33 110.223ZM1528.33 55.9499L1527.34 55.8869L1527.33 55.9184V55.9499H1528.33ZM1488.33 5.44991L1488.4 4.45233L1488.37 4.44991H1488.33V5.44991ZM1225.33 5.44991L1225.29 6.44899L1225.31 6.44991H1225.33V5.44991ZM1183.33 55.9499H1184.33V55.9499L1183.33 55.9499ZM1182.63 105.157C1183.02 105.548 1183.65 105.548 1184.04 105.157L1190.4 98.7931C1190.8 98.4026 1190.8 97.7694 1190.4 97.3789C1190.01 96.9884 1189.38 96.9884 1188.99 97.3789L1183.33 103.036L1177.68 97.3789C1177.29 96.9884 1176.65 96.9884 1176.26 97.3789C1175.87 97.7694 1175.87 98.4026 1176.26 98.7931L1182.63 105.157ZM1184.33 100.857C1184.33 100.305 1183.89 99.8574 1183.33 99.8574C1182.78 99.8574 1182.33 100.305 1182.33 100.857H1183.33H1184.33ZM1182.33 91.8759C1182.33 92.4282 1182.78 92.8759 1183.33 92.8759C1183.89 92.8759 1184.33 92.4282 1184.33 91.8759H1183.33H1182.33ZM1184.33 84.6907C1184.33 84.1384 1183.89 83.6907 1183.33 83.6907C1182.78 83.6907 1182.33 84.1384 1182.33 84.6907H1183.33H1184.33ZM1182.33 75.7092C1182.33 76.2615 1182.78 76.7092 1183.33 76.7092C1183.89 76.7092 1184.33 76.2615 1184.33 75.7092H1183.33H1182.33ZM1184.33 68.524C1184.33 67.9717 1183.89 67.524 1183.33 67.524C1182.78 67.524 1182.33 67.9717 1182.33 68.524H1183.33H1184.33ZM1182.33 59.5425C1182.33 60.0948 1182.78 60.5425 1183.33 60.5425C1183.89 60.5425 1184.33 60.0948 1184.33 59.5425H1183.33H1182.33ZM1184.41 51.788C1184.43 51.2361 1184 50.7724 1183.45 50.7522C1182.89 50.7321 1182.43 51.1632 1182.41 51.7151L1183.41 51.7516L1184.41 51.788ZM1183.37 41.1362C1183.29 41.6821 1183.66 42.1924 1184.21 42.2758C1184.76 42.3593 1185.27 41.9843 1185.35 41.4384L1184.36 41.2873L1183.37 41.1362ZM1187.09 33.3601C1187.24 32.829 1186.93 32.2756 1186.4 32.1241C1185.87 31.9725 1185.31 32.2802 1185.16 32.8113L1186.12 33.0857L1187.09 33.3601ZM1189.14 22.8987C1188.88 23.3839 1189.06 23.9911 1189.54 24.2549C1190.03 24.5188 1190.63 24.3393 1190.9 23.8542L1190.02 23.3764L1189.14 22.8987ZM1195.57 17.1798C1195.94 16.7692 1195.91 16.1369 1195.5 15.7675C1195.09 15.3981 1194.46 15.4315 1194.09 15.8421L1194.83 16.5109L1195.57 17.1798ZM1202.51 9.12896C1202.03 9.39678 1201.86 10.0054 1202.12 10.4884C1202.39 10.9714 1203 11.1459 1203.48 10.8781L1203 10.0035L1202.51 9.12896ZM1211.03 7.85052C1211.56 7.70638 1211.88 7.15733 1211.74 6.62419C1211.59 6.09104 1211.04 5.77569 1210.51 5.91983L1210.77 6.88518L1211.03 7.85052ZM1221.11 4.4191C1220.56 4.43561 1220.13 4.89651 1220.14 5.44855C1220.16 6.00059 1220.62 6.43472 1221.17 6.4182L1221.14 5.41865L1221.11 4.4191ZM1229.23 6.44991C1229.78 6.44991 1230.23 6.00219 1230.23 5.44991C1230.23 4.89762 1229.78 4.44991 1229.23 4.44991V5.44991V6.44991ZM1238.97 4.44991C1238.42 4.44991 1237.97 4.89762 1237.97 5.44991C1237.97 6.00219 1238.42 6.44991 1238.97 6.44991V5.44991V4.44991ZM1246.76 6.44991C1247.32 6.44991 1247.76 6.00219 1247.76 5.44991C1247.76 4.89762 1247.32 4.44991 1246.76 4.44991V5.44991V6.44991ZM1256.5 4.44991C1255.95 4.44991 1255.5 4.89762 1255.5 5.44991C1255.5 6.00219 1255.95 6.44991 1256.5 6.44991V5.44991V4.44991ZM1264.3 6.44991C1264.85 6.44991 1265.3 6.00219 1265.3 5.44991C1265.3 4.89762 1264.85 4.44991 1264.3 4.44991V5.44991V6.44991ZM1274.04 4.44991C1273.48 4.44991 1273.04 4.89762 1273.04 5.44991C1273.04 6.00219 1273.48 6.44991 1274.04 6.44991V5.44991V4.44991ZM1281.83 6.44991C1282.38 6.44991 1282.83 6.00219 1282.83 5.44991C1282.83 4.89762 1282.38 4.44991 1281.83 4.44991V5.44991V6.44991ZM1291.57 4.44991C1291.02 4.44991 1290.57 4.89762 1290.57 5.44991C1290.57 6.00219 1291.02 6.44991 1291.57 6.44991V5.44991V4.44991ZM1299.36 6.44991C1299.92 6.44991 1300.36 6.00219 1300.36 5.44991C1300.36 4.89762 1299.92 4.44991 1299.36 4.44991V5.44991V6.44991ZM1309.1 4.44991C1308.55 4.44991 1308.1 4.89762 1308.1 5.44991C1308.1 6.00219 1308.55 6.44991 1309.1 6.44991V5.44991V4.44991ZM1316.9 6.44991C1317.45 6.44991 1317.9 6.00219 1317.9 5.44991C1317.9 4.89762 1317.45 4.44991 1316.9 4.44991V5.44991V6.44991ZM1326.64 4.44991C1326.08 4.44991 1325.64 4.89762 1325.64 5.44991C1325.64 6.00219 1326.08 6.44991 1326.64 6.44991V5.44991V4.44991ZM1334.43 6.44991C1334.98 6.44991 1335.43 6.00219 1335.43 5.44991C1335.43 4.89762 1334.98 4.44991 1334.43 4.44991V5.44991V6.44991ZM1344.17 4.44991C1343.62 4.44991 1343.17 4.89762 1343.17 5.44991C1343.17 6.00219 1343.62 6.44991 1344.17 6.44991V5.44991V4.44991ZM1351.96 6.44991C1352.52 6.44991 1352.96 6.00219 1352.96 5.44991C1352.96 4.89762 1352.52 4.44991 1351.96 4.44991V5.44991V6.44991ZM1361.7 4.44991C1361.15 4.44991 1360.7 4.89762 1360.7 5.44991C1360.7 6.00219 1361.15 6.44991 1361.7 6.44991V5.44991V4.44991ZM1369.5 6.44991C1370.05 6.44991 1370.5 6.00219 1370.5 5.44991C1370.5 4.89762 1370.05 4.44991 1369.5 4.44991V5.44991V6.44991ZM1379.24 4.44991C1378.68 4.44991 1378.24 4.89762 1378.24 5.44991C1378.24 6.00219 1378.68 6.44991 1379.24 6.44991V5.44991V4.44991ZM1387.03 6.44991C1387.58 6.44991 1388.03 6.00219 1388.03 5.44991C1388.03 4.89762 1387.58 4.44991 1387.03 4.44991V5.44991V6.44991ZM1396.77 4.44991C1396.22 4.44991 1395.77 4.89762 1395.77 5.44991C1395.77 6.00219 1396.22 6.44991 1396.77 6.44991V5.44991V4.44991ZM1404.56 6.44991C1405.12 6.44991 1405.56 6.00219 1405.56 5.44991C1405.56 4.89762 1405.12 4.44991 1404.56 4.44991V5.44991V6.44991ZM1414.3 4.44991C1413.75 4.44991 1413.3 4.89762 1413.3 5.44991C1413.3 6.00219 1413.75 6.44991 1414.3 6.44991V5.44991V4.44991ZM1422.1 6.44991C1422.65 6.44991 1423.1 6.00219 1423.1 5.44991C1423.1 4.89762 1422.65 4.44991 1422.1 4.44991V5.44991V6.44991ZM1431.84 4.44991C1431.28 4.44991 1430.84 4.89762 1430.84 5.44991C1430.84 6.00219 1431.28 6.44991 1431.84 6.44991V5.44991V4.44991ZM1439.63 6.44991C1440.18 6.44991 1440.63 6.00219 1440.63 5.44991C1440.63 4.89762 1440.18 4.44991 1439.63 4.44991V5.44991V6.44991ZM1449.37 4.44991C1448.82 4.44991 1448.37 4.89762 1448.37 5.44991C1448.37 6.00219 1448.82 6.44991 1449.37 6.44991V5.44991V4.44991ZM1457.16 6.44991C1457.72 6.44991 1458.16 6.00219 1458.16 5.44991C1458.16 4.89762 1457.72 4.44991 1457.16 4.44991V5.44991V6.44991ZM1466.9 4.44991C1466.35 4.44991 1465.9 4.89762 1465.9 5.44991C1465.9 6.00219 1466.35 6.44991 1466.9 6.44991V5.44991V4.44991ZM1474.7 6.44991C1475.25 6.44991 1475.7 6.00219 1475.7 5.44991C1475.7 4.89762 1475.25 4.44991 1474.7 4.44991V5.44991V6.44991ZM1484.44 4.44991C1483.88 4.44991 1483.44 4.89762 1483.44 5.44991C1483.44 6.00219 1483.88 6.44991 1484.44 6.44991V5.44991V4.44991ZM1492.19 6.86788C1492.73 6.94789 1493.24 6.56976 1493.32 6.0233C1493.4 5.47684 1493.02 4.96899 1492.48 4.88898L1492.33 5.87843L1492.19 6.86788ZM1502.36 7.45617C1501.85 7.25593 1501.27 7.51085 1501.07 8.02556C1500.87 8.54027 1501.12 9.11985 1501.64 9.32008L1502 8.38813L1502.36 7.45617ZM1508.56 12.8792C1509.02 13.1826 1509.64 13.0546 1509.95 12.5931C1510.25 12.1317 1510.12 11.5116 1509.66 11.2081L1509.11 12.0436L1508.56 12.8792ZM1517.39 17.9503C1517.03 17.5352 1516.39 17.494 1515.98 17.8583C1515.56 18.2226 1515.52 18.8544 1515.89 19.2695L1516.64 18.6099L1517.39 17.9503ZM1520.43 25.6193C1520.71 26.0967 1521.32 26.2586 1521.8 25.981C1522.28 25.7033 1522.44 25.0912 1522.16 24.6138L1521.3 25.1165L1520.43 25.6193ZM1526.34 33.9237C1526.16 33.4 1525.6 33.1179 1525.07 33.2935C1524.55 33.4691 1524.27 34.036 1524.44 34.5596L1525.39 34.2416L1526.34 33.9237ZM1526.41 42.1782C1526.51 42.7211 1527.04 43.0788 1527.58 42.9771C1528.12 42.8755 1528.48 42.3531 1528.38 41.8102L1527.4 41.9942L1526.41 42.1782ZM1529.42 51.9372C1529.41 51.385 1528.95 50.945 1528.4 50.9546C1527.85 50.9641 1527.41 51.4195 1527.42 51.9717L1528.42 51.9544L1529.42 51.9372ZM1527.33 59.5425C1527.33 60.0948 1527.78 60.5425 1528.33 60.5425C1528.89 60.5425 1529.33 60.0948 1529.33 59.5425H1528.33H1527.33ZM1529.33 68.524C1529.33 67.9717 1528.89 67.524 1528.33 67.524C1527.78 67.524 1527.33 67.9717 1527.33 68.524H1528.33H1529.33ZM1527.33 75.7092C1527.33 76.2615 1527.78 76.7092 1528.33 76.7092C1528.89 76.7092 1529.33 76.2615 1529.33 75.7092H1528.33H1527.33ZM1529.33 84.6907C1529.33 84.1384 1528.89 83.6907 1528.33 83.6907C1527.78 83.6907 1527.33 84.1384 1527.33 84.6907H1528.33H1529.33ZM1527.33 91.8759C1527.33 92.4281 1527.78 92.8759 1528.33 92.8759C1528.89 92.8759 1529.33 92.4281 1529.33 91.8759H1528.33H1527.33ZM1529.33 100.857C1529.33 100.305 1528.89 99.8574 1528.33 99.8574C1527.78 99.8574 1527.33 100.305 1527.33 100.857H1528.33H1529.33ZM1183.33 104.45H1184.33V100.857H1183.33H1182.33V104.45H1183.33ZM1183.33 91.8759H1184.33V84.6907H1183.33H1182.33V91.8759H1183.33ZM1183.33 75.7092H1184.33V68.524H1183.33H1182.33V75.7092H1183.33ZM1183.33 59.5425H1184.33V55.9499H1183.33H1182.33V59.5425H1183.33ZM1183.33 55.9499L1184.33 55.9499C1184.33 54.5225 1184.36 53.1356 1184.41 51.788L1183.41 51.7516L1182.41 51.7151C1182.36 53.0877 1182.33 54.499 1182.33 55.9499L1183.33 55.9499ZM1184.36 41.2873L1185.35 41.4384C1185.8 38.5103 1186.38 35.824 1187.09 33.3601L1186.12 33.0857L1185.16 32.8113C1184.44 35.3623 1183.83 38.1314 1183.37 41.1362L1184.36 41.2873ZM1190.02 23.3764L1190.9 23.8542C1192.3 21.2738 1193.88 19.0665 1195.57 17.1798L1194.83 16.5109L1194.09 15.8421C1192.28 17.849 1190.62 20.1853 1189.14 22.8987L1190.02 23.3764ZM1203 10.0035L1203.48 10.8781C1205.94 9.51623 1208.49 8.53832 1211.03 7.85052L1210.77 6.88518L1210.51 5.91983C1207.83 6.64443 1205.13 7.67927 1202.51 9.12896L1203 10.0035ZM1221.14 5.41865L1221.17 6.4182C1222.61 6.37527 1223.99 6.39291 1225.29 6.44899L1225.33 5.44991L1225.38 4.45083C1224.03 4.39294 1222.6 4.37454 1221.11 4.4191L1221.14 5.41865ZM1225.33 5.44991V6.44991H1229.23V5.44991V4.44991H1225.33V5.44991ZM1238.97 5.44991V6.44991H1246.76V5.44991V4.44991H1238.97V5.44991ZM1256.5 5.44991V6.44991H1264.3V5.44991V4.44991H1256.5V5.44991ZM1274.04 5.44991V6.44991H1281.83V5.44991V4.44991H1274.04V5.44991ZM1291.57 5.44991V6.44991H1299.36V5.44991V4.44991H1291.57V5.44991ZM1309.1 5.44991V6.44991H1316.9V5.44991V4.44991H1309.1V5.44991ZM1326.64 5.44991V6.44991H1334.43V5.44991V4.44991H1326.64V5.44991ZM1344.17 5.44991V6.44991H1351.96V5.44991V4.44991H1344.17V5.44991ZM1361.7 5.44991V6.44991H1369.5V5.44991V4.44991H1361.7V5.44991ZM1379.24 5.44991V6.44991H1387.03V5.44991V4.44991H1379.24V5.44991ZM1396.77 5.44991V6.44991H1404.56V5.44991V4.44991H1396.77V5.44991ZM1414.3 5.44991V6.44991H1422.1V5.44991V4.44991H1414.3V5.44991ZM1431.84 5.44991V6.44991H1439.63V5.44991V4.44991H1431.84V5.44991ZM1449.37 5.44991V6.44991H1457.16V5.44991V4.44991H1449.37V5.44991ZM1466.9 5.44991V6.44991H1474.7V5.44991V4.44991H1466.9V5.44991ZM1484.44 5.44991V6.44991H1488.33V5.44991V4.44991H1484.44V5.44991ZM1488.33 5.44991L1488.26 6.44748C1489.62 6.5418 1490.92 6.68297 1492.19 6.86788L1492.33 5.87843L1492.48 4.88898C1491.16 4.69655 1489.8 4.55006 1488.4 4.45233L1488.33 5.44991ZM1502 8.38813L1501.64 9.32008C1504.18 10.3069 1506.48 11.5077 1508.56 12.8792L1509.11 12.0436L1509.66 11.2081C1507.46 9.75942 1505.03 8.494 1502.36 7.45617L1502 8.38813ZM1516.64 18.6099L1515.89 19.2695C1517.63 21.2567 1519.14 23.3931 1520.43 25.6193L1521.3 25.1165L1522.16 24.6138C1520.81 22.2857 1519.23 20.0425 1517.39 17.9503L1516.64 18.6099ZM1525.39 34.2416L1524.44 34.5596C1525.3 37.1159 1525.95 39.6818 1526.41 42.1782L1527.4 41.9942L1528.38 41.8102C1527.9 39.2309 1527.23 36.5748 1526.34 33.9237L1525.39 34.2416ZM1528.42 51.9544L1527.42 51.9717C1527.44 53.3638 1527.41 54.6762 1527.34 55.8869L1528.33 55.9499L1529.33 56.0129C1529.41 54.7463 1529.44 53.3803 1529.42 51.9372L1528.42 51.9544ZM1528.33 55.9499H1527.33V59.5425H1528.33H1529.33V55.9499H1528.33ZM1528.33 68.524H1527.33V75.7092H1528.33H1529.33V68.524H1528.33ZM1528.33 84.6907H1527.33V91.8759H1528.33H1529.33V84.6907H1528.33ZM1528.33 100.857H1527.33V104.45H1528.33H1529.33V100.857H1528.33Z" fill="#16161D"/>
<path d="M1214.33 6.44991C1214.89 6.44991 1215.33 6.00219 1215.33 5.44991C1215.33 4.89762 1214.89 4.44991 1214.33 4.44991V5.44991V6.44991ZM871.333 5.44991L871.291 6.44899L871.312 6.44991H871.333V5.44991ZM829.333 55.9499H830.333V55.9499L829.333 55.9499ZM828.626 105.157C829.017 105.548 829.65 105.548 830.041 105.157L836.405 98.7931C836.795 98.4026 836.795 97.7694 836.405 97.3789C836.014 96.9884 835.381 96.9884 834.99 97.3789L829.333 103.036L823.677 97.3789C823.286 96.9884 822.653 96.9884 822.262 97.3789C821.872 97.7694 821.872 98.4026 822.262 98.7931L828.626 105.157ZM830.333 100.857C830.333 100.305 829.886 99.8574 829.333 99.8574C828.781 99.8574 828.333 100.305 828.333 100.857H829.333H830.333ZM828.333 91.8759C828.333 92.4282 828.781 92.8759 829.333 92.8759C829.886 92.8759 830.333 92.4282 830.333 91.8759H829.333H828.333ZM830.333 84.6907C830.333 84.1384 829.886 83.6907 829.333 83.6907C828.781 83.6907 828.333 84.1384 828.333 84.6907H829.333H830.333ZM828.333 75.7092C828.333 76.2615 828.781 76.7092 829.333 76.7092C829.886 76.7092 830.333 76.2615 830.333 75.7092H829.333H828.333ZM830.333 68.524C830.333 67.9717 829.886 67.524 829.333 67.524C828.781 67.524 828.333 67.9717 828.333 68.524H829.333H830.333ZM828.333 59.5425C828.333 60.0948 828.781 60.5425 829.333 60.5425C829.886 60.5425 830.333 60.0948 830.333 59.5425H829.333H828.333ZM830.408 51.788C830.428 51.2361 829.997 50.7724 829.445 50.7522C828.893 50.7321 828.429 51.1632 828.409 51.7151L829.409 51.7516L830.408 51.788ZM829.373 41.1362C829.29 41.6821 829.665 42.1924 830.211 42.2758C830.757 42.3593 831.267 41.9843 831.35 41.4384L830.362 41.2873L829.373 41.1362ZM833.086 33.3601C833.238 32.829 832.93 32.2756 832.399 32.1241C831.868 31.9725 831.315 32.2802 831.163 32.8113L832.125 33.0857L833.086 33.3601ZM835.14 22.8987C834.876 23.3839 835.056 23.9911 835.541 24.2549C836.026 24.5188 836.633 24.3393 836.897 23.8542L836.019 23.3764L835.14 22.8987ZM841.574 17.1798C841.943 16.7692 841.91 16.1369 841.499 15.7675C841.089 15.3981 840.457 15.4315 840.087 15.8421L840.831 16.5109L841.574 17.1798ZM848.513 9.12896C848.03 9.39678 847.856 10.0054 848.123 10.4884C848.391 10.9714 849 11.1459 849.483 10.8781L848.998 10.0035L848.513 9.12896ZM857.031 7.85052C857.564 7.70638 857.88 7.15733 857.736 6.62419C857.591 6.09104 857.042 5.77569 856.509 5.91983L856.77 6.88518L857.031 7.85052ZM867.111 4.4191C866.559 4.43561 866.125 4.89651 866.142 5.44855C866.158 6.00059 866.619 6.43472 867.171 6.4182L867.141 5.41865L867.111 4.4191ZM875.345 6.44991C875.897 6.44991 876.345 6.00219 876.345 5.44991C876.345 4.89762 875.897 4.44991 875.345 4.44991V5.44991V6.44991ZM885.374 4.44991C884.822 4.44991 884.374 4.89762 884.374 5.44991C884.374 6.00219 884.822 6.44991 885.374 6.44991V5.44991V4.44991ZM893.398 6.44991C893.95 6.44991 894.398 6.00219 894.398 5.44991C894.398 4.89762 893.95 4.44991 893.398 4.44991V5.44991V6.44991ZM903.427 4.44991C902.875 4.44991 902.427 4.89762 902.427 5.44991C902.427 6.00219 902.875 6.44991 903.427 6.44991V5.44991V4.44991ZM911.45 6.44991C912.003 6.44991 912.45 6.00219 912.45 5.44991C912.45 4.89762 912.003 4.44991 911.45 4.44991V5.44991V6.44991ZM921.48 4.44991C920.927 4.44991 920.48 4.89762 920.48 5.44991C920.48 6.00219 920.927 6.44991 921.48 6.44991V5.44991V4.44991ZM929.503 6.44991C930.055 6.44991 930.503 6.00219 930.503 5.44991C930.503 4.89762 930.055 4.44991 929.503 4.44991V5.44991V6.44991ZM939.532 4.44991C938.98 4.44991 938.532 4.89762 938.532 5.44991C938.532 6.00219 938.98 6.44991 939.532 6.44991V5.44991V4.44991ZM947.556 6.44991C948.108 6.44991 948.556 6.00219 948.556 5.44991C948.556 4.89762 948.108 4.44991 947.556 4.44991V5.44991V6.44991ZM957.585 4.44991C957.033 4.44991 956.585 4.89762 956.585 5.44991C956.585 6.00219 957.033 6.44991 957.585 6.44991V5.44991V4.44991ZM965.608 6.44991C966.161 6.44991 966.608 6.00219 966.608 5.44991C966.608 4.89762 966.161 4.44991 965.608 4.44991V5.44991V6.44991ZM975.638 4.44991C975.085 4.44991 974.638 4.89762 974.638 5.44991C974.638 6.00219 975.085 6.44991 975.638 6.44991V5.44991V4.44991ZM983.661 6.44991C984.213 6.44991 984.661 6.00219 984.661 5.44991C984.661 4.89762 984.213 4.44991 983.661 4.44991V5.44991V6.44991ZM993.69 4.44991C993.138 4.44991 992.69 4.89762 992.69 5.44991C992.69 6.00219 993.138 6.44991 993.69 6.44991V5.44991V4.44991ZM1001.71 6.44991C1002.27 6.44991 1002.71 6.00219 1002.71 5.44991C1002.71 4.89762 1002.27 4.44991 1001.71 4.44991V5.44991V6.44991ZM1011.74 4.44991C1011.19 4.44991 1010.74 4.89762 1010.74 5.44991C1010.74 6.00219 1011.19 6.44991 1011.74 6.44991V5.44991V4.44991ZM1019.77 6.44991C1020.32 6.44991 1020.77 6.00219 1020.77 5.44991C1020.77 4.89762 1020.32 4.44991 1019.77 4.44991V5.44991V6.44991ZM1029.8 4.44991C1029.24 4.44991 1028.8 4.89762 1028.8 5.44991C1028.8 6.00219 1029.24 6.44991 1029.8 6.44991V5.44991V4.44991ZM1037.82 6.44991C1038.37 6.44991 1038.82 6.00219 1038.82 5.44991C1038.82 4.89762 1038.37 4.44991 1037.82 4.44991V5.44991V6.44991ZM1047.85 4.44991C1047.3 4.44991 1046.85 4.89762 1046.85 5.44991C1046.85 6.00219 1047.3 6.44991 1047.85 6.44991V5.44991V4.44991ZM1055.87 6.44991C1056.42 6.44991 1056.87 6.00219 1056.87 5.44991C1056.87 4.89762 1056.42 4.44991 1055.87 4.44991V5.44991V6.44991ZM1065.9 4.44991C1065.35 4.44991 1064.9 4.89762 1064.9 5.44991C1064.9 6.00219 1065.35 6.44991 1065.9 6.44991V5.44991V4.44991ZM1073.92 6.44991C1074.48 6.44991 1074.92 6.00219 1074.92 5.44991C1074.92 4.89762 1074.48 4.44991 1073.92 4.44991V5.44991V6.44991ZM1083.95 4.44991C1083.4 4.44991 1082.95 4.89762 1082.95 5.44991C1082.95 6.00219 1083.4 6.44991 1083.95 6.44991V5.44991V4.44991ZM1091.98 6.44991C1092.53 6.44991 1092.98 6.00219 1092.98 5.44991C1092.98 4.89762 1092.53 4.44991 1091.98 4.44991V5.44991V6.44991ZM1102.01 4.44991C1101.45 4.44991 1101.01 4.89762 1101.01 5.44991C1101.01 6.00219 1101.45 6.44991 1102.01 6.44991V5.44991V4.44991ZM1110.03 6.44991C1110.58 6.44991 1111.03 6.00219 1111.03 5.44991C1111.03 4.89762 1110.58 4.44991 1110.03 4.44991V5.44991V6.44991ZM1120.06 4.44991C1119.51 4.44991 1119.06 4.89762 1119.06 5.44991C1119.06 6.00219 1119.51 6.44991 1120.06 6.44991V5.44991V4.44991ZM1128.08 6.44991C1128.63 6.44991 1129.08 6.00219 1129.08 5.44991C1129.08 4.89762 1128.63 4.44991 1128.08 4.44991V5.44991V6.44991ZM1138.11 4.44991C1137.56 4.44991 1137.11 4.89762 1137.11 5.44991C1137.11 6.00219 1137.56 6.44991 1138.11 6.44991V5.44991V4.44991ZM1146.13 6.44991C1146.69 6.44991 1147.13 6.00219 1147.13 5.44991C1147.13 4.89762 1146.69 4.44991 1146.13 4.44991V5.44991V6.44991ZM1156.16 4.44991C1155.61 4.44991 1155.16 4.89762 1155.16 5.44991C1155.16 6.00219 1155.61 6.44991 1156.16 6.44991V5.44991V4.44991ZM1164.19 6.44991C1164.74 6.44991 1165.19 6.00219 1165.19 5.44991C1165.19 4.89762 1164.74 4.44991 1164.19 4.44991V5.44991V6.44991ZM1174.22 4.44991C1173.66 4.44991 1173.22 4.89762 1173.22 5.44991C1173.22 6.00219 1173.66 6.44991 1174.22 6.44991V5.44991V4.44991ZM1182.24 6.44991C1182.79 6.44991 1183.24 6.00219 1183.24 5.44991C1183.24 4.89762 1182.79 4.44991 1182.24 4.44991V5.44991V6.44991ZM1192.27 4.44991C1191.72 4.44991 1191.27 4.89762 1191.27 5.44991C1191.27 6.00219 1191.72 6.44991 1192.27 6.44991V5.44991V4.44991ZM1200.29 6.44991C1200.84 6.44991 1201.29 6.00219 1201.29 5.44991C1201.29 4.89762 1200.84 4.44991 1200.29 4.44991V5.44991V6.44991ZM1210.32 4.44991C1209.77 4.44991 1209.32 4.89762 1209.32 5.44991C1209.32 6.00219 1209.77 6.44991 1210.32 6.44991V5.44991V4.44991ZM829.333 104.45H830.333V100.857H829.333H828.333V104.45H829.333ZM829.333 91.8759H830.333V84.6907H829.333H828.333V91.8759H829.333ZM829.333 75.7092H830.333V68.524H829.333H828.333V75.7092H829.333ZM829.333 59.5425H830.333V55.9499H829.333H828.333V59.5425H829.333ZM829.333 55.9499L830.333 55.9499C830.333 54.5225 830.359 53.1356 830.408 51.788L829.409 51.7516L828.409 51.7151C828.359 53.0877 828.333 54.499 828.333 55.9499L829.333 55.9499ZM830.362 41.2873L831.35 41.4384C831.798 38.5103 832.383 35.824 833.086 33.3601L832.125 33.0857L831.163 32.8113C830.435 35.3623 829.833 38.1314 829.373 41.1362L830.362 41.2873ZM836.019 23.3764L836.897 23.8542C838.3 21.2738 839.877 19.0665 841.574 17.1798L840.831 16.5109L840.087 15.8421C838.282 17.849 836.616 20.1853 835.14 22.8987L836.019 23.3764ZM848.998 10.0035L849.483 10.8781C851.939 9.51623 854.487 8.53832 857.031 7.85052L856.77 6.88518L856.509 5.91983C853.829 6.64443 851.128 7.67927 848.513 9.12896L848.998 10.0035ZM867.141 5.41865L867.171 6.4182C868.606 6.37527 869.987 6.39291 871.291 6.44899L871.333 5.44991L871.376 4.45083C870.03 4.39294 868.601 4.37454 867.111 4.4191L867.141 5.41865ZM871.333 5.44991V6.44991H875.345V5.44991V4.44991H871.333V5.44991ZM885.374 5.44991V6.44991H893.398V5.44991V4.44991H885.374V5.44991ZM903.427 5.44991V6.44991H911.45V5.44991V4.44991H903.427V5.44991ZM921.48 5.44991V6.44991H929.503V5.44991V4.44991H921.48V5.44991ZM939.532 5.44991V6.44991H947.556V5.44991V4.44991H939.532V5.44991ZM957.585 5.44991V6.44991H965.608V5.44991V4.44991H957.585V5.44991ZM975.638 5.44991V6.44991H983.661V5.44991V4.44991H975.638V5.44991ZM993.69 5.44991V6.44991H1001.71V5.44991V4.44991H993.69V5.44991ZM1011.74 5.44991V6.44991H1019.77V5.44991V4.44991H1011.74V5.44991ZM1029.8 5.44991V6.44991H1037.82V5.44991V4.44991H1029.8V5.44991ZM1047.85 5.44991V6.44991H1055.87V5.44991V4.44991H1047.85V5.44991ZM1065.9 5.44991V6.44991H1073.92V5.44991V4.44991H1065.9V5.44991ZM1083.95 5.44991V6.44991H1091.98V5.44991V4.44991H1083.95V5.44991ZM1102.01 5.44991V6.44991H1110.03V5.44991V4.44991H1102.01V5.44991ZM1120.06 5.44991V6.44991H1128.08V5.44991V4.44991H1120.06V5.44991ZM1138.11 5.44991V6.44991H1146.13V5.44991V4.44991H1138.11V5.44991ZM1156.16 5.44991V6.44991H1164.19V5.44991V4.44991H1156.16V5.44991ZM1174.22 5.44991V6.44991H1182.24V5.44991V4.44991H1174.22V5.44991ZM1192.27 5.44991V6.44991H1200.29V5.44991V4.44991H1192.27V5.44991ZM1210.32 5.44991V6.44991H1214.33V5.44991V4.44991H1210.32V5.44991Z" fill="#16161D"/>
<path d="M1586.33 167.394C1585.78 167.394 1585.33 167.842 1585.33 168.394C1585.33 168.947 1585.78 169.394 1586.33 169.394V168.394V167.394ZM1726.04 169.101C1726.43 168.711 1726.43 168.078 1726.04 167.687L1719.68 161.323C1719.29 160.933 1718.65 160.933 1718.26 161.323C1717.87 161.714 1717.87 162.347 1718.26 162.737L1723.92 168.394L1718.26 174.051C1717.87 174.442 1717.87 175.075 1718.26 175.465C1718.65 175.856 1719.29 175.856 1719.68 175.465L1726.04 169.101ZM1586.33 168.394V169.394L1725.33 169.394V168.394V167.394L1586.33 167.394V168.394Z" fill="#16161D"/>
<path d="M1228.34 167C1227.78 166.999 1227.33 167.446 1227.33 167.998C1227.33 168.551 1227.78 168.999 1228.33 169L1228.33 168L1228.34 167ZM1475.04 169.103C1475.43 168.713 1475.43 168.079 1475.04 167.688L1468.69 161.314C1468.3 160.923 1467.66 160.922 1467.27 161.312C1466.88 161.702 1466.88 162.335 1467.27 162.726L1472.92 168.392L1467.25 174.04C1466.86 174.43 1466.86 175.063 1467.25 175.454C1467.64 175.845 1468.27 175.846 1468.67 175.456L1475.04 169.103ZM1228.33 168L1228.33 169L1474.33 169.394L1474.33 168.394L1474.34 167.394L1228.34 167L1228.33 168Z" fill="#16161D"/>
<path d="M870.333 167C869.781 167 869.333 167.448 869.333 168C869.333 168.552 869.781 169 870.333 169V168V167ZM918.141 168V169H918.2L918.259 168.993L918.141 168ZM954.39 102.925L953.896 102.056L953.828 102.094L953.767 102.143L954.39 102.925ZM1034.77 152.983L1035.31 152.144L1034.77 152.983ZM1130.04 168.707C1130.43 168.317 1130.43 167.683 1130.04 167.293L1123.68 160.929C1123.29 160.538 1122.65 160.538 1122.26 160.929C1121.87 161.319 1121.87 161.953 1122.26 162.343L1127.92 168L1122.26 173.657C1121.87 174.047 1121.87 174.681 1122.26 175.071C1122.65 175.462 1123.29 175.462 1123.68 175.071L1130.04 168.707ZM870.333 168V169H918.141V168V167H870.333V168ZM918.141 168L918.259 168.993C935.095 166.988 944.291 163.332 948.847 158.367C953.499 153.3 953.113 147.123 951.62 140.862C950.876 137.742 949.817 134.457 948.916 131.252C948.005 128.009 947.233 124.781 946.99 121.605C946.748 118.438 947.035 115.349 948.224 112.375C949.41 109.406 951.52 106.492 955.014 103.707L954.39 102.925L953.767 102.143C950.037 105.115 947.698 108.302 946.366 111.633C945.037 114.96 944.737 118.37 944.996 121.757C945.254 125.136 946.07 128.517 946.991 131.793C947.923 135.107 948.941 138.251 949.674 141.326C951.136 147.454 951.309 152.728 947.374 157.015C943.344 161.405 934.809 165.008 918.023 167.007L918.141 168ZM954.39 102.925L954.884 103.795C961.392 100.098 968.057 100.31 974.854 103.017C981.693 105.741 988.612 110.976 995.482 117.242C1002.35 123.506 1009.08 130.71 1015.59 137.344C1022.07 143.947 1028.34 149.999 1034.22 153.821L1034.77 152.983L1035.31 152.144C1029.64 148.458 1023.5 142.559 1017.01 135.943C1010.55 129.359 1003.75 122.078 996.83 115.764C989.91 109.453 982.775 104.02 975.594 101.159C968.37 98.282 961.048 97.9932 953.896 102.056L954.39 102.925ZM1034.77 152.983L1034.22 153.821C1057.64 169.033 1082.67 169 1129.33 169V168V167C1082.48 167 1058.13 166.967 1035.31 152.144L1034.77 152.983Z" fill="#16161D"/>
<path d="M870.333 168C890.931 168 934.415 168 957.873 176.082C1005.62 192.529 1033.92 253.263 1075.74 245.281C1117.55 237.299 1027.68 168 1096.33 168" stroke="#16161D" stroke-width="2" stroke-linecap="round"/>
<path d="M559.333 168.394C590.321 168.394 582.566 189.446 612.294 191.256C648.577 193.466 699.514 168.394 742.333 168.394" stroke="#16161D" stroke-width="2" stroke-linecap="round"/>
<path d="M559.333 168.375C592.996 168.375 571.833 226.602 619.333 225.375C651.772 224.538 695.818 168.375 742.333 168.375" stroke="#16161D" stroke-width="2" stroke-linecap="round"/>
<path d="M559.333 168.394C596.221 168.394 554.002 246.04 617.045 244.368C652.591 243.425 691.362 168.394 742.333 168.394" stroke="#16161D" stroke-width="2" stroke-linecap="round"/>
<path d="M559.333 168.394C590.321 168.394 582.566 142.766 612.294 140.562C648.577 137.872 699.514 168.394 742.333 168.394" stroke="#16161D" stroke-width="2" stroke-linecap="round"/>
<path d="M559.333 168.394C592.996 168.394 571.833 110.168 619.333 111.394C651.772 112.232 695.818 168.394 742.333 168.394" stroke="#16161D" stroke-width="2" stroke-linecap="round"/>
<path d="M559.333 168.394C596.221 168.394 554.002 90.7486 617.045 92.4209C652.591 93.3638 691.362 168.394 742.333 168.394" stroke="#16161D" stroke-width="2" stroke-linecap="round"/>
<path d="M543.333 167.394C542.781 167.394 542.333 167.842 542.333 168.394C542.333 168.947 542.781 169.394 543.333 169.394V168.394V167.394ZM775.041 169.101C775.431 168.711 775.431 168.078 775.041 167.687L768.677 161.323C768.286 160.933 767.653 160.933 767.262 161.323C766.872 161.714 766.872 162.347 767.262 162.737L772.919 168.394L767.262 174.051C766.872 174.442 766.872 175.075 767.262 175.465C767.653 175.856 768.286 175.856 768.677 175.465L775.041 169.101ZM543.333 168.394V169.394L774.333 169.394V168.394V167.394L543.333 167.394V168.394Z" fill="#16161D"/>
<path d="M426.541 173.101C426.931 172.71 426.931 172.077 426.541 171.687L420.177 165.323C419.786 164.932 419.153 164.932 418.762 165.323C418.372 165.713 418.372 166.347 418.762 166.737L424.419 172.394L418.762 178.051C418.372 178.441 418.372 179.074 418.762 179.465C419.153 179.855 419.786 179.855 420.177 179.465L426.541 173.101ZM344.832 164.414L344.543 165.372V165.372L344.832 164.414ZM167.319 132.916L166.729 133.723V133.723L167.319 132.916ZM118.64 103.677L118.089 104.512L118.161 104.559L118.24 104.594L118.64 103.677ZM58.6396 96.5375L59.5991 96.2558L59.5451 96.072L59.4271 95.9212L58.6396 96.5375ZM131.229 96.5375L132.221 96.6636L131.229 96.5375ZM93.0408 18.2638L93.605 19.0894L93.0408 18.2638ZM198.793 195.072L199.784 194.937L198.793 195.072ZM93.0408 213.131L92.6853 214.066L93.0408 213.131ZM93.0408 164.414L93.5958 165.246L93.6047 165.24L93.6136 165.234L93.0408 164.414ZM0.000162601 164.414C0.000162601 167.36 2.38798 169.748 5.3335 169.748C8.27901 169.748 10.6668 167.36 10.6668 164.414C10.6668 161.469 8.27901 159.081 5.3335 159.081C2.38798 159.081 0.000162601 161.469 0.000162601 164.414ZM425.833 172.394V171.394C416.767 171.394 376.167 172.811 345.12 163.457L344.832 164.414L344.543 165.372C375.941 174.832 416.9 173.394 425.833 173.394V172.394ZM344.832 164.414L345.12 163.457C335.359 160.516 328.194 158.538 322.764 157.354C317.344 156.173 313.581 155.767 310.651 156.016C307.669 156.269 305.595 157.196 303.556 158.564C302.556 159.234 301.559 160.015 300.486 160.853C299.405 161.698 298.229 162.615 296.835 163.597L297.411 164.414L297.987 165.232C299.426 164.219 300.637 163.273 301.717 162.429C302.804 161.579 303.742 160.847 304.67 160.225C306.486 159.007 308.241 158.228 310.82 158.009C313.449 157.785 316.978 158.14 322.338 159.308C327.688 160.474 334.791 162.433 344.543 165.372L344.832 164.414ZM297.411 164.414L296.835 163.597C293.833 165.711 291.439 168.871 289.181 172.568C286.934 176.248 284.73 180.626 282.217 185.136C277.156 194.222 270.636 204.25 259.071 212.311L259.643 213.131L260.214 213.952C272.149 205.633 278.849 195.293 283.964 186.11C286.54 181.486 288.663 177.254 290.888 173.611C293.102 169.984 295.324 167.107 297.987 165.232L297.411 164.414ZM259.643 213.131L259.071 212.311C247.521 220.361 227.499 225.997 210.287 226.779C201.684 227.17 193.901 226.341 188.284 224.075C182.696 221.82 179.428 218.238 179.333 213.113L178.333 213.131L177.334 213.15C177.449 219.364 181.512 223.499 187.536 225.929C193.533 228.349 201.644 229.174 210.378 228.777C227.84 227.984 248.264 222.281 260.214 213.952L259.643 213.131ZM178.333 213.131L179.333 213.113C179.231 207.562 180.34 201.185 181.631 194.298C182.915 187.448 184.374 180.122 184.9 172.813C185.958 158.143 183.271 143.351 167.91 132.109L167.319 132.916L166.729 133.723C181.325 144.406 183.935 158.382 182.906 172.669C182.389 179.839 180.957 187.038 179.665 193.929C178.38 200.782 177.227 207.361 177.334 213.15L178.333 213.131ZM167.319 132.916L167.91 132.109C149.297 118.487 123.424 118.756 103.036 126.21C92.8281 129.942 83.9051 135.504 77.89 142.129C71.872 148.758 68.7009 156.535 70.2469 164.603L71.229 164.414L72.2112 164.226C70.8196 156.965 73.6273 149.8 79.3708 143.474C85.1171 137.144 93.7382 131.738 103.723 128.088C123.722 120.777 148.832 120.626 166.729 133.723L167.319 132.916ZM71.229 164.414L70.2469 164.603C71.7765 172.584 78.0317 180.842 85.9121 188.818C93.823 196.824 103.547 204.714 112.236 211.921C120.977 219.172 128.599 225.678 132.496 230.999C134.458 233.678 135.314 235.846 135.127 237.536C134.954 239.104 133.825 240.603 130.844 241.846L131.229 242.769L131.614 243.692C134.928 242.31 136.829 240.35 137.115 237.755C137.388 235.281 136.133 232.581 134.109 229.817C130.034 224.252 122.185 217.575 113.513 210.382C104.789 203.145 95.1588 195.33 87.3348 187.412C79.4802 179.462 73.6192 171.574 72.2112 164.226L71.229 164.414ZM131.229 242.769L130.844 241.846C118.348 247.057 103.609 249.738 92.2355 246.209C86.5816 244.455 81.7688 241.171 78.4311 235.89C75.0851 230.597 73.1668 223.21 73.4773 213.162L72.4778 213.131L71.4783 213.1C71.1593 223.422 73.1228 231.236 76.7405 236.959C80.3663 242.695 85.599 246.244 91.6428 248.119C103.665 251.849 118.931 248.981 131.614 243.692L131.229 242.769ZM72.4778 213.131L73.4773 213.162C73.636 208.027 73.1344 204.396 72.0557 202.059C71.5092 200.875 70.7907 199.971 69.8852 199.398C68.9687 198.818 67.943 198.63 66.8886 198.742C64.8464 198.958 62.6497 200.299 60.5287 202.153C58.3756 204.036 56.1657 206.568 54.0915 209.395C49.9492 215.04 46.2519 221.995 44.5966 227.591C43.7768 230.362 43.4113 232.95 43.8705 234.909C44.1057 235.913 44.5716 236.81 45.3598 237.45C46.1513 238.094 47.1642 238.394 48.3335 238.394V237.394V236.394C47.5094 236.394 46.9767 236.187 46.6213 235.898C46.2626 235.607 45.9805 235.147 45.8177 234.453C45.481 233.016 45.7199 230.844 46.5145 228.158C48.0879 222.839 51.6594 216.09 55.704 210.578C57.7232 207.826 59.8362 205.415 61.8451 203.659C63.8863 201.874 65.691 200.88 67.0991 200.731C67.7699 200.66 68.3316 200.782 68.8161 201.088C69.3114 201.402 69.8073 201.96 70.2398 202.897C71.1192 204.802 71.6343 208.051 71.4783 213.1L72.4778 213.131ZM48.3335 237.394V238.394C52.0265 238.394 55.9484 240.08 60.1829 242.887C64.4079 245.688 68.819 249.518 73.491 253.651C82.7678 261.858 93.0627 271.268 104.498 275.336L104.833 274.394L105.169 273.452C94.1778 269.541 84.1961 260.451 74.8162 252.153C70.1599 248.034 65.6476 244.11 61.288 241.22C56.9379 238.336 52.6139 236.394 48.3335 236.394V237.394ZM104.833 274.394L104.498 275.336C115.925 279.402 136.767 280.87 159.233 277.14C181.72 273.406 206 264.436 224.234 247.461L223.553 246.729L222.871 245.997C205.015 262.62 181.149 271.473 158.905 275.167C136.641 278.864 116.168 277.366 105.169 273.452L104.833 274.394ZM223.553 246.729L224.234 247.461C233.364 238.961 237.859 231.197 239.898 223.988C241.932 216.794 241.493 210.243 240.914 204.268C240.33 198.234 239.63 192.919 240.927 187.86C242.201 182.891 245.444 178.069 253.045 173.238L252.509 172.394L251.972 171.55C244.046 176.588 240.417 181.794 238.99 187.363C237.585 192.843 238.354 198.578 238.924 204.461C239.499 210.403 239.899 216.634 237.973 223.444C236.052 230.238 231.786 237.698 222.871 245.997L223.553 246.729ZM252.509 172.394L253.045 173.238C260.535 168.477 271.234 167.151 282.888 168.297C294.515 169.44 306.946 173.029 317.772 177.925C328.616 182.829 337.745 188.998 342.852 195.234C345.403 198.349 346.892 201.408 347.168 204.276C347.439 207.101 346.547 209.854 344.104 212.445L344.832 213.131L345.56 213.817C348.362 210.844 349.49 207.534 349.158 204.085C348.831 200.68 347.093 197.256 344.399 193.966C339.015 187.393 329.574 181.067 318.596 176.102C307.6 171.129 294.957 167.474 283.084 166.307C271.238 165.142 260.009 166.442 251.972 171.55L252.509 172.394ZM344.832 213.131L344.104 212.445C338.874 217.994 333.317 223.45 327.927 227.977C322.524 232.515 317.348 236.07 312.879 237.875C308.385 239.689 304.914 239.626 302.539 237.488C300.072 235.267 298.411 230.515 298.411 221.951H297.411H296.411C296.411 230.606 298.056 236.143 301.201 238.974C304.439 241.89 308.889 241.642 313.628 239.729C318.39 237.807 323.758 234.091 329.214 229.508C334.683 224.914 340.299 219.398 345.56 213.817L344.832 213.131ZM297.411 221.951H298.411C298.411 205.087 308.687 190.454 316.616 177.916C320.531 171.725 323.922 165.965 324.948 160.783C325.468 158.16 325.394 155.632 324.446 153.248C323.497 150.864 321.711 148.719 318.968 146.796L318.394 147.615L317.82 148.435C320.322 150.187 321.815 152.045 322.588 153.987C323.36 155.929 323.451 158.05 322.987 160.395C322.045 165.148 318.879 170.595 314.926 176.847C307.118 189.192 296.411 204.377 296.411 221.951H297.411ZM318.394 147.615L318.968 146.796C316.232 144.88 313.715 143.994 311.358 144.024C308.992 144.055 306.924 145.008 305.093 146.507C301.498 149.447 298.601 154.675 295.796 159.899C292.937 165.224 290.144 170.61 286.738 174.279C285.049 176.099 283.256 177.441 281.291 178.145C279.344 178.842 277.16 178.938 274.625 178.158L274.33 179.113L274.036 180.069C276.956 180.968 279.585 180.881 281.966 180.028C284.328 179.182 286.378 177.607 288.204 175.64C291.827 171.737 294.752 166.072 297.558 160.845C300.418 155.518 303.134 150.693 306.359 148.055C307.937 146.764 309.581 146.048 311.384 146.024C313.198 146.001 315.311 146.676 317.82 148.435L318.394 147.615ZM274.33 179.113L274.625 178.158C269.177 176.48 264.896 175.405 261.654 174.459C258.355 173.496 256.086 172.654 254.346 171.421C250.93 168.999 249.305 164.898 246.768 154.106L245.794 154.335L244.821 154.564C247.319 165.191 249.051 170.119 253.189 173.052C255.226 174.496 257.783 175.413 261.094 176.379C264.461 177.362 268.573 178.387 274.036 180.069L274.33 179.113ZM245.794 154.335L246.768 154.106C245.535 148.862 245.145 142.792 245.526 137.17C245.909 131.529 247.06 126.447 248.827 123.131C249.711 121.472 250.702 120.345 251.739 119.761C252.728 119.205 253.84 119.095 255.156 119.628C256.52 120.18 258.127 121.436 259.952 123.686C261.769 125.926 263.751 129.091 265.882 133.363L266.777 132.916L267.672 132.47C265.501 128.12 263.444 124.818 261.505 122.426C259.574 120.045 257.71 118.504 255.907 117.774C254.056 117.025 252.305 117.148 250.758 118.018C249.26 118.861 248.041 120.355 247.062 122.19C245.105 125.862 243.922 131.263 243.531 137.035C243.138 142.826 243.536 149.098 244.821 154.564L245.794 154.335ZM266.777 132.916L265.882 133.363C274.563 150.765 286.785 159.444 296.918 159.659C302.021 159.767 306.542 157.713 309.651 153.607C312.741 149.526 314.365 143.516 313.937 135.801L312.938 135.856L311.94 135.912C312.351 143.315 310.776 148.808 308.056 152.4C305.355 155.967 301.457 157.755 296.96 157.659C287.894 157.467 276.196 149.557 267.672 132.47L266.777 132.916ZM312.938 135.856L313.937 135.801C313.512 128.152 311.975 120.525 310.339 113.496C308.694 106.427 306.968 100.033 306.11 94.6976C305.682 92.0397 305.481 89.7044 305.605 87.7327C305.729 85.7585 306.174 84.2262 306.968 83.1041C308.492 80.9523 311.69 79.8435 318.222 80.9849L318.394 79.9999L318.566 79.0148C311.879 77.8463 307.576 78.7849 305.336 81.9484C304.248 83.484 303.746 85.4263 303.609 87.6075C303.472 89.7913 303.697 92.2922 304.135 95.0152C305.008 100.441 306.771 106.988 308.391 113.949C310.02 120.95 311.525 128.441 311.94 135.912L312.938 135.856ZM318.394 79.9999L318.222 80.9849C331.352 83.2793 342.518 88.2614 348.015 94.5189C350.739 97.6198 352.017 100.966 351.571 104.441C351.122 107.939 348.901 111.774 344.185 115.775L344.832 116.538L345.479 117.3C350.415 113.112 353.02 108.862 353.555 104.696C354.092 100.506 352.512 96.6077 349.517 93.199C343.578 86.4374 331.874 81.3401 318.566 79.0148L318.394 79.9999ZM344.832 116.538L344.185 115.775C339.358 119.87 334.772 123.676 330.413 126.758C326.047 129.845 321.966 132.163 318.155 133.325C314.365 134.48 310.89 134.479 307.658 132.992C304.406 131.496 301.262 128.431 298.281 123.183L297.411 123.677L296.542 124.171C299.645 129.633 303.058 133.077 306.822 134.809C310.607 136.551 314.606 136.497 318.738 135.238C322.848 133.985 327.133 131.526 331.567 128.391C336.007 125.253 340.654 121.394 345.479 117.3L344.832 116.538ZM297.411 123.677L298.281 123.183C295.308 117.951 292.82 109.911 290.294 101.103C287.785 92.3543 285.251 82.8948 282.187 75.0176C280.653 71.0744 278.972 67.4874 277.071 64.5579C275.174 61.6354 273.017 59.3008 270.502 57.9497C267.951 56.5785 265.1 56.2589 261.951 57.2554C258.84 58.2395 255.48 60.4919 251.801 64.174L252.509 64.8808L253.216 65.5876C256.776 62.0251 259.868 60.0122 262.554 59.1622C265.201 58.3246 267.491 58.6022 269.556 59.7114C271.657 60.8408 273.591 62.8699 275.393 65.6466C277.19 68.4163 278.814 71.8639 280.323 75.7426C283.344 83.5095 285.845 92.8438 288.372 101.655C290.882 110.408 293.429 118.693 296.542 124.171L297.411 123.677ZM252.509 64.8808L251.801 64.174C244.54 71.4408 238.68 78.0945 234.424 83.8969C230.186 89.6752 227.473 94.6966 226.614 98.6883C226.182 100.695 226.201 102.525 226.813 104.078C227.436 105.66 228.63 106.844 230.322 107.606C233.61 109.088 238.85 109.015 246.01 107.435L245.794 106.458L245.579 105.482C238.47 107.051 233.796 106.978 231.143 105.783C229.865 105.206 229.082 104.382 228.674 103.346C228.254 102.281 228.188 100.882 228.569 99.1089C229.337 95.5412 231.843 90.7982 236.037 85.0797C240.214 79.3853 245.999 72.8099 253.216 65.5876L252.509 64.8808ZM245.794 106.458L246.01 107.435C253.722 105.732 258.076 98.6433 259.714 90.0565C261.357 81.4344 260.348 70.989 257.068 61.916C253.797 52.8657 248.187 44.9765 240.455 41.7518C232.63 38.4884 222.979 40.1342 211.996 49.4181L212.642 50.1818L213.287 50.9455C223.916 41.9605 232.783 40.719 239.685 43.5977C246.68 46.5151 252.007 53.7974 255.188 62.596C258.36 71.3719 259.318 81.4526 257.749 89.6819C256.173 97.9466 252.135 104.034 245.579 105.482L245.794 106.458ZM212.642 50.1818L211.996 49.4181C201.189 58.5535 192.398 66.2697 185.806 72.959C179.23 79.6318 174.756 85.3666 172.685 90.548C170.581 95.814 170.955 100.531 174.053 104.97C177.085 109.315 182.675 113.318 190.787 117.429L191.239 116.538L191.691 115.646C183.647 111.568 178.431 107.748 175.693 103.825C173.021 99.9961 172.661 95.9987 174.542 91.2903C176.458 86.4973 180.692 80.9979 187.23 74.3628C193.753 67.7442 202.482 60.0789 213.287 50.9455L212.642 50.1818ZM191.239 116.538L190.787 117.429C206.6 125.445 215.375 140.781 218.428 156.157C219.953 163.84 220.04 171.499 218.876 178.201C217.709 184.915 215.3 190.599 211.896 194.406L212.642 195.072L213.387 195.739C217.118 191.566 219.639 185.491 220.846 178.543C222.055 171.583 221.959 163.676 220.389 155.768C217.252 139.961 208.192 124.009 191.691 115.646L191.239 116.538ZM212.642 195.072L211.896 194.406C211.033 195.371 210.361 195.932 209.869 196.203C209.628 196.336 209.471 196.376 209.385 196.385C209.314 196.392 209.299 196.378 209.298 196.378C209.265 196.359 209.07 196.199 208.912 195.535C208.763 194.91 208.693 194.021 208.721 192.866C208.834 188.23 210.503 180.227 213.278 170.894C216.045 161.59 219.885 151.055 224.284 141.389C228.691 131.708 233.63 122.962 238.58 117.188L237.821 116.538L237.062 115.887C231.93 121.872 226.898 130.818 222.464 140.56C218.023 150.318 214.152 160.939 211.361 170.324C208.579 179.68 206.841 187.899 206.721 192.817C206.691 194.051 206.761 195.133 206.966 195.998C207.163 196.823 207.536 197.671 208.301 198.111C209.136 198.591 210.053 198.385 210.834 197.955C211.617 197.523 212.467 196.769 213.387 195.739L212.642 195.072ZM237.821 116.538L238.58 117.188C248.592 105.51 263.378 93.5388 275.593 87.9435C281.743 85.1267 287.007 84.0352 290.647 85.1308C292.419 85.6641 293.827 86.7204 294.812 88.4214C295.813 90.1481 296.411 92.6011 296.411 95.9588H297.411H298.411C298.411 92.3869 297.778 89.5508 296.543 87.419C295.293 85.2616 293.464 83.8899 291.224 83.2157C286.841 81.8965 280.988 83.2723 274.76 86.1252C262.221 91.8692 247.212 104.046 237.062 115.887L237.821 116.538ZM297.411 95.9588H296.411C296.411 109.704 292.342 119.58 286.858 123.549C284.169 125.496 281.121 126.046 277.904 124.955C274.64 123.847 271.097 121.013 267.599 115.968L266.777 116.538L265.955 117.107C269.591 122.351 273.444 125.554 277.262 126.849C281.126 128.159 284.845 127.475 288.031 125.17C294.297 120.634 298.411 109.932 298.411 95.9588H297.411ZM266.777 116.538L267.599 115.968C264.12 110.95 261.403 103.959 258.844 96.5068C256.305 89.1111 253.919 81.2524 251.12 74.7235C248.336 68.2328 245.024 62.7449 240.454 60.3164C235.724 57.8033 230.021 58.7222 222.948 64.0839L223.553 64.8808L224.157 65.6777C230.933 60.5401 235.773 60.0941 239.515 62.0826C243.417 64.1557 246.504 69.0358 249.281 75.5118C252.042 81.9496 254.377 89.6561 256.953 97.1563C259.508 104.6 262.3 111.836 265.955 117.107L266.777 116.538ZM223.553 64.8808L222.948 64.0839C215.761 69.5329 212.599 76.8612 211.378 84.6751C210.163 92.4505 210.86 100.79 211.435 108.319C211.724 112.105 211.982 115.681 211.971 118.932C211.96 122.188 211.677 125.049 210.916 127.413C210.161 129.758 208.948 131.583 207.08 132.838C205.198 134.101 202.547 134.856 198.793 134.856V135.856V136.856C202.802 136.856 205.882 136.05 208.194 134.498C210.519 132.938 211.961 130.694 212.82 128.026C213.672 125.376 213.959 122.279 213.971 118.939C213.983 115.596 213.717 111.941 213.429 108.167C212.85 100.577 212.182 92.4851 213.354 84.9839C214.52 77.5213 217.495 70.728 224.157 65.6777L223.553 64.8808ZM198.793 135.856V134.856C168.316 134.856 148.107 112.366 144.389 86.3168L143.399 86.4582L142.409 86.5995C146.244 113.467 167.161 136.856 198.793 136.856V135.856ZM143.399 86.4582L144.389 86.3168C143.47 79.8804 144.333 70.7935 146.711 61.0477C149.086 51.3194 152.949 41.0241 157.96 32.1881C162.981 23.3342 169.098 16.0419 175.934 12.191C182.698 8.38065 190.208 7.90572 198.278 12.7516L198.793 11.8943L199.308 11.037C190.592 5.80344 182.313 6.302 174.953 10.4484C167.664 14.5542 161.324 22.2019 156.22 31.2015C151.107 40.2191 147.181 50.6909 144.768 60.5735C142.361 70.4388 141.439 79.8067 142.409 86.5995L143.399 86.4582ZM198.793 11.8943L198.278 12.7516C214.991 22.7866 229.312 35.6004 236.169 46.7002C239.609 52.27 241.058 57.2266 240.229 61.1183C239.425 64.8962 236.389 67.999 230.006 69.7253L230.267 70.6906L230.528 71.6559C237.344 69.8125 241.171 66.3007 242.186 61.5348C243.176 56.8826 241.401 51.3661 237.87 45.6491C230.783 34.1754 216.168 21.1607 199.308 11.037L198.793 11.8943ZM230.267 70.6906L230.006 69.7253C216.74 73.3128 204.58 76.8233 192.754 75.1945C181.034 73.5803 169.499 66.8793 157.652 49.616L156.828 50.1818L156.003 50.7476C168.077 68.342 180.061 75.4652 192.481 77.1758C204.796 78.8719 217.394 75.2078 230.528 71.6559L230.267 70.6906ZM156.828 50.1818L157.652 49.616C151.447 40.5728 141.333 36.4268 130.345 35.472C119.359 34.5174 107.38 36.7351 97.2015 40.5452C87.0603 44.3415 78.5184 49.7909 74.5691 55.4512C72.5811 58.3004 71.6729 61.3329 72.5131 64.2678C73.3495 67.1895 75.8392 69.7318 80.0084 71.7909L80.4512 70.8943L80.894 69.9977C76.9849 68.067 75.0551 65.8805 74.4359 63.7174C73.8204 61.5676 74.4204 59.1595 76.2093 56.5956C79.8137 51.4297 87.9004 46.1625 97.9026 42.4183C107.868 38.6879 119.546 36.5412 130.172 37.4645C140.796 38.3876 150.249 42.3619 156.003 50.7476L156.828 50.1818ZM80.4512 70.8943L80.0084 71.7909C88.0248 75.7501 95.0601 80.3298 101.571 84.6286C108.06 88.9124 114.068 92.9457 119.943 95.7224C125.837 98.5079 131.684 100.073 137.869 99.3551C144.056 98.6373 150.453 95.6506 157.482 89.5759L156.828 88.8193L156.174 88.0627C149.354 93.9572 143.319 96.7094 137.638 97.3684C131.955 98.0278 126.497 96.6075 120.798 93.9142C115.08 91.2122 109.207 87.2733 102.673 82.9596C96.1622 78.6609 89.0342 74.018 80.894 69.9977L80.4512 70.8943ZM156.828 88.8193L157.482 89.5759C171.044 77.8538 185.487 77.9789 194.315 82.9624C198.744 85.4627 201.719 89.1522 202.589 93.1566C203.451 97.1196 202.29 101.572 198.088 105.749L198.793 106.458L199.498 107.167C204.109 102.584 205.571 97.4592 204.544 92.7319C203.526 88.0461 200.101 83.9324 195.298 81.2208C185.661 75.7803 170.309 75.8463 156.174 88.0627L156.828 88.8193ZM198.793 106.458L198.088 105.749C189.492 114.294 179.6 117.815 166.956 117.096C154.24 116.374 138.745 111.362 119.04 102.761L118.64 103.677L118.24 104.594C137.982 113.211 153.751 118.35 166.843 119.093C180.008 119.841 190.469 116.143 199.498 107.167L198.793 106.458ZM118.64 103.677L119.19 102.842C97.9377 88.8319 80.4651 84.0383 69.3441 84.293C63.8244 84.4194 59.6653 85.7982 57.495 88.1518C56.3839 89.3566 55.8059 90.811 55.873 92.4065C55.9392 93.98 56.6274 95.5888 57.852 97.1538L58.6396 96.5375L59.4271 95.9212C58.3786 94.5814 57.915 93.3632 57.8713 92.3225C57.8284 91.3038 58.1822 90.3567 58.9652 89.5076C60.583 87.7533 64.0607 86.4145 69.3899 86.2924C79.9668 86.0502 97.0405 90.6359 118.089 104.512L118.64 103.677ZM58.6396 96.5375L57.6801 96.8192C59.8996 104.379 65.0001 112.983 71.5189 120.43C78.0359 127.874 86.0563 134.259 94.1875 137.278C102.357 140.311 110.733 139.964 117.666 133.753C124.52 127.614 129.777 115.897 132.221 96.6636L131.229 96.5375L130.237 96.4114C127.814 115.479 122.647 126.606 116.332 132.263C110.097 137.849 102.561 138.253 94.8836 135.403C87.1686 132.539 79.4091 126.407 73.0238 119.113C66.6402 111.821 61.7159 103.465 59.5991 96.2558L58.6396 96.5375ZM131.229 96.5375L132.221 96.6636C135.262 72.7368 137.73 53.5708 138.883 38.8701C139.46 31.518 139.711 25.2575 139.538 20.06C139.364 14.8736 138.767 10.6824 137.612 7.50051C136.452 4.30295 134.692 2.03658 132.155 0.87568C129.644 -0.27391 126.561 -0.249997 122.935 0.703988C115.717 2.60314 105.778 8.34739 92.4765 17.4382L93.0408 18.2638L93.605 19.0894C106.935 9.97861 116.607 4.43704 123.444 2.63816C126.846 1.74313 129.402 1.81498 131.323 2.69428C133.22 3.56226 134.688 5.30573 135.732 8.18296C136.782 11.0759 137.368 15.0244 137.539 20.1267C137.709 25.2179 137.464 31.3951 136.89 38.7136C135.74 53.3542 133.281 72.4613 130.237 96.4114L131.229 96.5375ZM93.0408 18.2638L92.4765 17.4382C58.2151 40.8546 44.2562 65.6446 41.5611 84.7423C40.215 94.2811 41.6799 102.422 44.8721 108.22C48.063 114.015 53.0373 117.538 58.6396 117.538V116.538V115.538C53.9604 115.538 49.5681 112.602 46.6241 107.255C43.6814 101.911 42.2429 94.2242 43.5415 85.0218C46.136 66.6369 59.6592 42.29 93.605 19.0894L93.0408 18.2638ZM58.6396 116.538V117.538C59.6907 117.538 60.3604 117.863 60.8203 118.383C61.3118 118.94 61.6703 119.841 61.8194 121.178C62.119 123.865 61.5237 127.831 60.2551 132.759C57.7287 142.575 52.6806 155.687 47.6888 168.891C42.7152 182.046 37.796 195.297 35.6043 205.265C34.5135 210.227 34.0622 214.522 34.7075 217.625C35.0338 219.194 35.658 220.545 36.707 221.505C37.7715 222.478 39.1666 222.951 40.8335 222.951V221.951V220.951C39.5592 220.951 38.6806 220.6 38.0568 220.029C37.4174 219.444 36.9387 218.531 36.6656 217.218C36.1121 214.556 36.4756 210.616 37.5577 205.695C39.7117 195.898 44.5702 182.795 49.5596 169.598C54.5308 156.448 59.6311 143.207 62.192 133.258C63.4671 128.304 64.1501 124.033 63.807 120.956C63.6347 119.411 63.1916 118.047 62.3193 117.059C61.4152 116.036 60.1588 115.538 58.6396 115.538V116.538ZM40.8335 221.951V222.951C43.6541 222.951 48.2568 223.701 54.3262 225.009C60.3685 226.312 67.7764 228.147 76.1655 230.276C92.9321 234.532 113.59 239.958 134.928 244.609C156.264 249.259 178.32 253.143 197.898 254.309C217.432 255.473 234.682 253.944 246.274 247.607L245.794 246.729L245.314 245.852C234.246 251.903 217.485 253.472 198.017 252.313C178.592 251.156 156.652 247.297 135.354 242.655C114.059 238.014 93.4453 232.599 76.6575 228.338C68.2694 226.208 60.8295 224.365 54.7476 223.054C48.6929 221.749 43.8952 220.951 40.8335 220.951V221.951ZM245.794 246.729L246.274 247.607C249.088 246.068 251.303 244.999 252.976 244.328C254.699 243.636 255.708 243.427 256.179 243.456C256.403 243.469 256.265 243.521 256.136 243.333C256.012 243.152 256.102 243.048 256.042 243.257C255.917 243.683 255.434 244.471 254.441 245.612C250.558 250.075 240.636 258.023 227.835 265.526C215.05 273.02 199.514 279.999 184.443 282.611C169.371 285.222 154.918 283.446 144.069 273.652L143.399 274.394L142.729 275.137C154.211 285.501 169.388 287.249 184.784 284.581C200.18 281.914 215.95 274.811 228.846 267.252C241.727 259.702 251.862 251.625 255.95 246.924C256.951 245.774 257.705 244.7 257.962 243.815C258.092 243.369 258.159 242.746 257.785 242.201C257.406 241.649 256.79 241.489 256.299 241.459C255.337 241.401 253.956 241.78 252.231 242.471C250.457 243.183 248.165 244.293 245.314 245.852L245.794 246.729ZM143.399 274.394L144.069 273.652C138.529 268.651 135.457 264.568 134.181 261.177C132.934 257.864 133.391 255.193 135.026 252.823C136.712 250.379 139.696 248.195 143.629 246.08C147.546 243.973 152.282 241.998 157.368 239.911C167.48 235.762 178.965 231.187 187.454 224.369C196.011 217.496 201.602 208.278 199.784 194.937L198.793 195.072L197.802 195.207C199.504 207.695 194.348 216.267 186.201 222.81C177.985 229.408 166.807 233.876 156.608 238.06C151.539 240.141 146.706 242.154 142.682 244.318C138.674 246.474 135.343 248.842 133.38 251.688C131.365 254.608 130.837 257.968 132.309 261.881C133.753 265.717 137.104 270.059 142.729 275.137L143.399 274.394ZM198.793 195.072L199.784 194.937C199.147 190.266 197.983 187.125 196.075 185.444C194.058 183.666 191.501 183.738 188.77 184.716C186.051 185.689 182.893 187.644 179.365 190.058C177.591 191.272 175.7 192.618 173.704 194.035C171.706 195.454 169.598 196.948 167.377 198.465C149.6 210.611 124.803 224.143 93.3963 212.197L93.0408 213.131L92.6853 214.066C125.066 226.383 150.617 212.339 168.505 200.116C170.743 198.588 172.864 197.085 174.862 195.666C176.863 194.245 178.738 192.91 180.494 191.708C184.028 189.291 186.995 187.476 189.444 186.599C191.88 185.727 193.534 185.87 194.753 186.944C196.08 188.114 197.175 190.606 197.802 195.207L198.793 195.072ZM93.0408 213.131L93.3963 212.197C87.1132 209.807 81.5258 212.706 77.2317 217.819C72.9432 222.926 69.7497 230.422 68.0624 237.89C66.3788 245.342 66.1519 252.957 67.9864 258.298C68.908 260.981 70.3861 263.19 72.5667 264.445C74.7684 265.712 77.5136 265.908 80.7478 264.903L80.4512 263.948L80.1546 262.993C77.3039 263.879 75.1637 263.632 73.5642 262.711C71.9436 261.779 70.7047 260.055 69.8779 257.648C68.2158 252.81 68.3671 245.617 70.0132 238.331C71.6555 231.062 74.7429 223.893 78.7633 219.106C82.778 214.325 87.5273 212.104 92.6853 214.066L93.0408 213.131ZM80.4512 263.948L80.7478 264.903C84.1838 263.836 86.4504 261.102 87.7809 257.349C89.1043 253.616 89.5445 248.776 89.3042 243.241C88.8229 232.158 85.5968 217.976 80.7875 203.524C75.9744 189.06 69.5549 174.263 62.6463 161.937C55.7611 149.653 48.3124 139.681 41.3916 135.026L40.8335 135.856L40.2754 136.686C46.7797 141.061 54.0382 150.67 60.9017 162.915C67.7417 175.118 74.1122 189.798 78.8898 204.155C83.6711 218.523 86.8362 232.506 87.3061 243.328C87.5413 248.744 87.097 253.292 85.8958 256.68C84.7018 260.049 82.8036 262.17 80.1546 262.993L80.4512 263.948ZM40.8335 135.856L41.3916 135.026C39.7548 133.926 38.82 133.012 38.3804 132.301C37.9724 131.642 38.0524 131.288 38.2111 131.035C38.4421 130.668 39.0322 130.221 40.1857 129.814C41.3042 129.418 42.8004 129.112 44.6195 128.91C51.9123 128.099 63.7228 129.025 74.9002 131.581C80.4798 132.858 85.866 134.532 90.4252 136.58C95.0014 138.635 98.6605 141.029 100.874 143.7C103.05 146.325 103.812 149.18 102.726 152.356C101.609 155.624 98.4867 159.389 92.468 163.595L93.0408 164.414L93.6136 165.234C99.7648 160.936 103.299 156.865 104.619 153.003C105.97 149.05 104.949 145.481 102.414 142.423C99.9178 139.411 95.9396 136.864 91.2445 134.755C86.5323 132.639 81.0131 130.928 75.3461 129.632C64.0305 127.044 51.9836 126.079 44.3986 126.922C42.4982 127.133 40.8362 127.462 39.5192 127.928C38.2374 128.381 37.1149 129.021 36.5178 129.971C35.8484 131.036 35.9848 132.23 36.6793 133.353C37.3421 134.425 38.5559 135.53 40.2754 136.686L40.8335 135.856ZM93.0408 164.414L92.4858 163.583C86.8907 167.315 78.9892 169.415 70.1058 170.373C61.2421 171.329 51.5034 171.139 42.3149 170.368C33.1299 169.599 24.5213 168.252 17.9275 166.907C14.63 166.235 11.8455 165.565 9.75029 164.97C8.70198 164.673 7.83588 164.397 7.16904 164.153C6.47984 163.9 6.07139 163.705 5.88849 163.583L5.3335 164.414L4.7785 165.246C5.17262 165.509 5.77331 165.771 6.48039 166.031C7.20984 166.298 8.12718 166.589 9.20451 166.895C11.3606 167.506 14.1961 168.188 17.5279 168.867C24.1924 170.226 32.8787 171.585 42.1479 172.361C51.4136 173.138 61.2884 173.336 70.3203 172.362C79.3324 171.39 87.6085 169.241 93.5958 165.246L93.0408 164.414Z" fill="#16161D"/>
</svg>
