<svg width="80" height="80" viewBox="0 0 80 80" fill="none" xmlns="http://www.w3.org/2000/svg">
<rect x="1" y="1" width="78" height="78" rx="15" stroke="#E77625" stroke-opacity="0.2" stroke-width="2"/>
<path d="M55.7829 47.5877C55.7719 52.1097 52.1097 55.7719 47.5877 55.7829H31.886C27.3641 55.7719 23.7018 52.1097 23.6908 47.5877V31.9057C23.7018 27.386 27.3641 23.7237 31.886 23.7127H47.5877C52.1097 23.7237 55.7719 27.386 55.7829 31.9057V47.5877ZM47.5877 20H31.886C25.3224 20 20 25.3224 20 31.886V47.5877C19.9891 54.1404 25.2917 59.4627 31.8443 59.4737H47.5877C54.1404 59.4847 59.4627 54.182 59.4737 47.6294V31.9057C59.4847 25.3421 54.1733 20.011 47.6097 20H47.5877Z" fill="#E2723A"/>
<path d="M50.1317 27.2775C51.4102 27.2775 52.4453 28.3147 52.4453 29.5911C52.4453 30.8696 51.4102 31.9069 50.1317 31.9069C48.8532 31.9069 47.8181 30.8696 47.8181 29.5911C47.8181 28.3147 48.8532 27.2775 50.1317 27.2775Z" fill="#E2723A"/>
<path d="M39.8517 46.2117C36.3977 46.2117 33.5951 43.4112 33.5951 39.9551C33.5951 36.5012 36.3977 33.7007 39.8517 33.7007C43.3056 33.7007 46.1082 36.5012 46.1082 39.9551C46.1192 43.4112 43.3275 46.2205 39.8736 46.2314C39.8648 46.2336 39.8582 46.2336 39.8517 46.2336V46.2117ZM39.8517 30.2797C34.4964 30.2797 30.1543 34.6218 30.1543 39.977C30.1543 45.3323 34.4964 49.6722 39.8517 49.6722C45.2069 49.6722 49.549 45.3323 49.549 39.977C49.5249 34.6305 45.1982 30.3038 39.8517 30.2797Z" fill="#E2723A"/>
</svg>
