<svg width="80" height="80" viewBox="0 0 80 80" fill="none" xmlns="http://www.w3.org/2000/svg">
<rect x="1" y="1" width="78" height="78" rx="15" stroke="#E77625" stroke-opacity="0.2" stroke-width="2"/>
<path d="M28.1 32.5805H20.7228C20.3592 32.5502 20.0411 32.8355 20.0133 33.2142C20.0108 33.2419 20.0083 33.2697 20.0108 33.2975V59.0673C20.1623 59.5445 20.4425 59.8373 20.7228 59.8373H28.0748C28.4535 59.8525 28.7716 59.5419 28.7867 59.1481V33.2975C28.7867 32.9011 28.4787 32.5805 28.1 32.5805Z" fill="#E2723A"/>
<path d="M59.9237 44.3379C59.9237 35.9786 55.6494 32.0501 49.7491 32.1839C46.5149 32.0148 43.4701 33.7745 41.8896 36.7208V33.5094C41.8922 33.4816 41.8922 33.4539 41.8896 33.4286C41.8745 33.0474 41.5665 32.752 41.2029 32.7671H33.9014C33.8661 32.7646 33.8307 32.7646 33.7954 32.7671C33.4318 32.7974 33.1617 33.1307 33.1895 33.5094C33.3435 37.756 33.1895 55.5906 33.1895 59.254C33.1869 59.2893 33.1869 59.3272 33.1895 59.3651C33.2198 59.7438 33.5379 60.0265 33.9014 59.9962H41.3292C41.3645 59.9988 41.3999 59.9988 41.4352 59.9962C41.7988 59.9659 42.0714 59.6327 42.0411 59.254V44.7621C42.0336 44.6687 42.0285 44.5727 42.026 44.4768C41.9528 41.6491 44.0887 39.2935 46.7977 39.2153C49.9031 39.2153 51.1478 41.7097 51.1478 45.3453V59.254C51.1453 59.2893 51.1453 59.3272 51.1478 59.3651C51.1781 59.7438 51.4962 60.0265 51.8598 59.9962H59.2875C59.3228 59.9988 59.3582 59.9988 59.3935 59.9962C59.7571 59.9659 60.0298 59.6327 59.9995 59.254V44.3379H59.9237Z" fill="#E2723A"/>
<path d="M24.2349 19.6031C21.6774 19.6031 19.6046 21.7668 19.6046 24.4329C19.6046 27.1016 21.6774 29.2627 24.2349 29.2627C26.7924 29.2627 28.8652 27.1016 28.8652 24.4329C28.8652 21.7668 26.7924 19.6031 24.2349 19.6031Z" fill="#E2723A"/>
</svg>
