<svg width="147" height="57" viewBox="0 0 147 57" fill="none" xmlns="http://www.w3.org/2000/svg">
<path d="M126.483 19.846H98.758V54L67 28.7184L94.3086 3H124.342C135.639 3 144 8.19529 144 18.985C144 31.5296 134.956 34.5483 125.974 34.5483H114.164C114.164 34.5483 144 31.5 144 54" stroke="#E2723A" stroke-width="6" stroke-miterlimit="1.5" stroke-linecap="round" stroke-linejoin="round"/>
<path d="M29 36L21.5655 36.2619C9.5 36.2619 3 29.0378 3 19.5C3 10.502 8.5 3.50195 21.5655 3H57V54" stroke="#E2723A" stroke-width="6" stroke-miterlimit="1.5" stroke-linecap="round" stroke-linejoin="round"/>
<path d="M3 54.002H10H29.5C38.6127 54.002 46 46.6147 46 37.502C46 28.3893 38.6127 21.002 29.5 21.002H20" stroke="#E2723A" stroke-width="6" stroke-linecap="round"/>
</svg>
