<svg width="286" height="1727" viewBox="0 0 286 1727" fill="none" xmlns="http://www.w3.org/2000/svg">
<g clip-path="url(#clip0_8_2)">
<path d="M110.53 1528.33L104.756 1534.11L98.983 1528.33L104.756 1522.56L110.53 1528.33ZM56.256 1528.33L56.193 1527.34L56.225 1527.33H56.256V1528.33ZM5.75604 1488.33L4.75903 1488.4L4.75604 1488.37V1488.33H5.75604ZM5.75604 1225.33L6.75504 1225.29L6.75604 1225.31V1225.33H5.75604ZM105.463 1182.63C105.854 1183.02 105.854 1183.65 105.463 1184.04L99.099 1190.4C98.709 1190.8 98.076 1190.8 97.685 1190.4C97.295 1190.01 97.295 1189.38 97.685 1188.99L103.342 1183.33L97.685 1177.68C97.295 1177.29 97.295 1176.65 97.685 1176.26C98.076 1175.87 98.709 1175.87 99.099 1176.26L105.463 1182.63ZM101.164 1184.33C100.611 1184.33 100.164 1183.89 100.164 1183.33C100.164 1182.78 100.611 1182.33 101.164 1182.33V1183.33V1184.33ZM92.182 1182.33C92.735 1182.33 93.182 1182.78 93.182 1183.33C93.182 1183.89 92.735 1184.33 92.182 1184.33V1183.33V1182.33ZM84.997 1184.33C84.445 1184.33 83.997 1183.89 83.997 1183.33C83.997 1182.78 84.445 1182.33 84.997 1182.33V1183.33V1184.33ZM76.016 1182.33C76.568 1182.33 77.016 1182.78 77.016 1183.33C77.016 1183.89 76.568 1184.33 76.016 1184.33V1183.33V1182.33ZM68.83 1184.33C68.278 1184.33 67.83 1183.89 67.83 1183.33C67.83 1182.78 68.278 1182.33 68.83 1182.33V1183.33V1184.33ZM59.849 1182.33C60.401 1182.33 60.849 1182.78 60.849 1183.33C60.849 1183.89 60.401 1184.33 59.849 1184.33V1183.33V1182.33ZM52.094 1184.41C51.543 1184.43 51.079 1184 51.059 1183.45C51.038 1182.89 51.47 1182.43 52.021 1182.41L52.058 1183.41L52.094 1184.41ZM41.443 1183.37C41.989 1183.29 42.499 1183.66 42.582 1184.21C42.666 1184.76 42.291 1185.27 41.745 1185.35L41.594 1184.36L41.443 1183.37ZM33.666 1187.09C33.135 1187.24 32.582 1186.93 32.43 1186.4C32.279 1185.87 32.587 1185.31 33.118 1185.16L33.392 1186.12L33.666 1187.09ZM23.205 1189.14C23.69 1188.88 24.297 1189.06 24.561 1189.54C24.825 1190.03 24.646 1190.63 24.161 1190.9L23.683 1190.02L23.205 1189.14ZM17.486 1195.57C17.076 1195.94 16.443 1195.91 16.074 1195.5C15.705 1195.09 15.738 1194.46 16.149 1194.09L16.817 1194.83L17.486 1195.57ZM9.43503 1202.51C9.70303 1202.03 10.312 1201.86 10.795 1202.12C11.278 1202.39 11.452 1203 11.184 1203.48L10.31 1203L9.43503 1202.51ZM8.15704 1211.03C8.01304 1211.56 7.46403 1211.88 6.93103 1211.74C6.39703 1211.59 6.08204 1211.04 6.22604 1210.51L7.19202 1210.77L8.15704 1211.03ZM4.72504 1221.11C4.74204 1220.56 5.20304 1220.13 5.75504 1220.14C6.30704 1220.16 6.74104 1220.62 6.72504 1221.17L5.72504 1221.14L4.72504 1221.11ZM6.75604 1229.23C6.75604 1229.78 6.30904 1230.23 5.75604 1230.23C5.20404 1230.23 4.75604 1229.78 4.75604 1229.23H5.75604H6.75604ZM4.75604 1238.97C4.75604 1238.42 5.20404 1237.97 5.75604 1237.97C6.30904 1237.97 6.75604 1238.42 6.75604 1238.97H5.75604H4.75604ZM6.75604 1246.76C6.75604 1247.32 6.30904 1247.76 5.75604 1247.76C5.20404 1247.76 4.75604 1247.32 4.75604 1246.76H5.75604H6.75604ZM4.75604 1256.5C4.75604 1255.95 5.20404 1255.5 5.75604 1255.5C6.30904 1255.5 6.75604 1255.95 6.75604 1256.5H5.75604H4.75604ZM6.75604 1264.3C6.75604 1264.85 6.30904 1265.3 5.75604 1265.3C5.20404 1265.3 4.75604 1264.85 4.75604 1264.3H5.75604H6.75604ZM4.75604 1274.04C4.75604 1273.48 5.20404 1273.04 5.75604 1273.04C6.30904 1273.04 6.75604 1273.48 6.75604 1274.04H5.75604H4.75604ZM6.75604 1281.83C6.75604 1282.38 6.30904 1282.83 5.75604 1282.83C5.20404 1282.83 4.75604 1282.38 4.75604 1281.83H5.75604H6.75604ZM4.75604 1291.57C4.75604 1291.02 5.20404 1290.57 5.75604 1290.57C6.30904 1290.57 6.75604 1291.02 6.75604 1291.57H5.75604H4.75604ZM6.75604 1299.36C6.75604 1299.92 6.30904 1300.36 5.75604 1300.36C5.20404 1300.36 4.75604 1299.92 4.75604 1299.36H5.75604H6.75604ZM4.75604 1309.1C4.75604 1308.55 5.20404 1308.1 5.75604 1308.1C6.30904 1308.1 6.75604 1308.55 6.75604 1309.1H5.75604H4.75604ZM6.75604 1316.9C6.75604 1317.45 6.30904 1317.9 5.75604 1317.9C5.20404 1317.9 4.75604 1317.45 4.75604 1316.9H5.75604H6.75604ZM4.75604 1326.64C4.75604 1326.08 5.20404 1325.64 5.75604 1325.64C6.30904 1325.64 6.75604 1326.08 6.75604 1326.64H5.75604H4.75604ZM6.75604 1334.43C6.75604 1334.98 6.30904 1335.43 5.75604 1335.43C5.20404 1335.43 4.75604 1334.98 4.75604 1334.43H5.75604H6.75604ZM4.75604 1344.17C4.75604 1343.62 5.20404 1343.17 5.75604 1343.17C6.30904 1343.17 6.75604 1343.62 6.75604 1344.17H5.75604H4.75604ZM6.75604 1351.96C6.75604 1352.52 6.30904 1352.96 5.75604 1352.96C5.20404 1352.96 4.75604 1352.52 4.75604 1351.96H5.75604H6.75604ZM4.75604 1361.7C4.75604 1361.15 5.20404 1360.7 5.75604 1360.7C6.30904 1360.7 6.75604 1361.15 6.75604 1361.7H5.75604H4.75604ZM6.75604 1369.5C6.75604 1370.05 6.30904 1370.5 5.75604 1370.5C5.20404 1370.5 4.75604 1370.05 4.75604 1369.5H5.75604H6.75604ZM4.75604 1379.24C4.75604 1378.68 5.20404 1378.24 5.75604 1378.24C6.30904 1378.24 6.75604 1378.68 6.75604 1379.24H5.75604H4.75604ZM6.75604 1387.03C6.75604 1387.58 6.30904 1388.03 5.75604 1388.03C5.20404 1388.03 4.75604 1387.58 4.75604 1387.03H5.75604H6.75604ZM4.75604 1396.77C4.75604 1396.22 5.20404 1395.77 5.75604 1395.77C6.30904 1395.77 6.75604 1396.22 6.75604 1396.77H5.75604H4.75604ZM6.75604 1404.56C6.75604 1405.12 6.30904 1405.56 5.75604 1405.56C5.20404 1405.56 4.75604 1405.12 4.75604 1404.56H5.75604H6.75604ZM4.75604 1414.3C4.75604 1413.75 5.20404 1413.3 5.75604 1413.3C6.30904 1413.3 6.75604 1413.75 6.75604 1414.3H5.75604H4.75604ZM6.75604 1422.1C6.75604 1422.65 6.30904 1423.1 5.75604 1423.1C5.20404 1423.1 4.75604 1422.65 4.75604 1422.1H5.75604H6.75604ZM4.75604 1431.84C4.75604 1431.28 5.20404 1430.84 5.75604 1430.84C6.30904 1430.84 6.75604 1431.28 6.75604 1431.84H5.75604H4.75604ZM6.75604 1439.63C6.75604 1440.18 6.30904 1440.63 5.75604 1440.63C5.20404 1440.63 4.75604 1440.18 4.75604 1439.63H5.75604H6.75604ZM4.75604 1449.37C4.75604 1448.82 5.20404 1448.37 5.75604 1448.37C6.30904 1448.37 6.75604 1448.82 6.75604 1449.37H5.75604H4.75604ZM6.75604 1457.16C6.75604 1457.72 6.30904 1458.16 5.75604 1458.16C5.20404 1458.16 4.75604 1457.72 4.75604 1457.16H5.75604H6.75604ZM4.75604 1466.9C4.75604 1466.35 5.20404 1465.9 5.75604 1465.9C6.30904 1465.9 6.75604 1466.35 6.75604 1466.9H5.75604H4.75604ZM6.75604 1474.7C6.75604 1475.25 6.30904 1475.7 5.75604 1475.7C5.20404 1475.7 4.75604 1475.25 4.75604 1474.7H5.75604H6.75604ZM4.75604 1484.44C4.75604 1483.88 5.20404 1483.44 5.75604 1483.44C6.30904 1483.44 6.75604 1483.88 6.75604 1484.44H5.75604H4.75604ZM7.17404 1492.19C7.25404 1492.73 6.87602 1493.24 6.33002 1493.32C5.78302 1493.4 5.27504 1493.02 5.19504 1492.48L6.18503 1492.33L7.17404 1492.19ZM7.76303 1502.36C7.56203 1501.85 7.81703 1501.27 8.33203 1501.07C8.84703 1500.87 9.42604 1501.12 9.62604 1501.64L8.69504 1502L7.76303 1502.36ZM13.186 1508.56C13.489 1509.02 13.361 1509.64 12.9 1509.95C12.438 1510.25 11.818 1510.12 11.515 1509.66L12.35 1509.11L13.186 1508.56ZM18.257 1517.39C17.842 1517.03 17.8 1516.39 18.165 1515.98C18.529 1515.56 19.161 1515.52 19.576 1515.89L18.916 1516.64L18.257 1517.39ZM25.926 1520.43C26.403 1520.71 26.565 1521.32 26.287 1521.8C26.01 1522.28 25.398 1522.44 24.92 1522.16L25.423 1521.3L25.926 1520.43ZM34.23 1526.34C33.706 1526.16 33.424 1525.6 33.6 1525.07C33.776 1524.55 34.342 1524.27 34.866 1524.44L34.548 1525.39L34.23 1526.34ZM42.485 1526.41C43.027 1526.51 43.385 1527.04 43.284 1527.58C43.182 1528.12 42.659 1528.48 42.117 1528.38L42.301 1527.4L42.485 1526.41ZM52.244 1529.42C51.691 1529.41 51.251 1528.95 51.261 1528.4C51.271 1527.85 51.726 1527.41 52.278 1527.42L52.261 1528.42L52.244 1529.42ZM59.849 1527.33C60.401 1527.33 60.849 1527.78 60.849 1528.33C60.849 1528.89 60.401 1529.33 59.849 1529.33V1528.33V1527.33ZM68.83 1529.33C68.278 1529.33 67.83 1528.89 67.83 1528.33C67.83 1527.78 68.278 1527.33 68.83 1527.33V1528.33V1529.33ZM76.016 1527.33C76.568 1527.33 77.016 1527.78 77.016 1528.33C77.016 1528.89 76.568 1529.33 76.016 1529.33V1528.33V1527.33ZM84.997 1529.33C84.445 1529.33 83.997 1528.89 83.997 1528.33C83.997 1527.78 84.445 1527.33 84.997 1527.33V1528.33V1529.33ZM92.182 1527.33C92.735 1527.33 93.182 1527.78 93.182 1528.33C93.182 1528.89 92.735 1529.33 92.182 1529.33V1528.33V1527.33ZM101.164 1529.33C100.611 1529.33 100.164 1528.89 100.164 1528.33C100.164 1527.78 100.611 1527.33 101.164 1527.33V1528.33V1529.33ZM104.756 1183.33V1184.33H101.164V1183.33V1182.33H104.756V1183.33ZM92.182 1183.33V1184.33H84.997V1183.33V1182.33H92.182V1183.33ZM76.016 1183.33V1184.33H68.83V1183.33V1182.33H76.016V1183.33ZM59.849 1183.33V1184.33H56.256V1183.33V1182.33H59.849V1183.33ZM56.256 1183.33V1184.33C54.829 1184.33 53.442 1184.36 52.094 1184.41L52.058 1183.41L52.021 1182.41C53.394 1182.36 54.805 1182.33 56.256 1182.33V1183.33ZM41.594 1184.36L41.745 1185.35C38.817 1185.8 36.13 1186.38 33.666 1187.09L33.392 1186.12L33.118 1185.16C35.669 1184.44 38.438 1183.83 41.443 1183.37L41.594 1184.36ZM23.683 1190.02L24.161 1190.9C21.58 1192.3 19.373 1193.88 17.486 1195.57L16.817 1194.83L16.149 1194.09C18.155 1192.28 20.492 1190.62 23.205 1189.14L23.683 1190.02ZM10.31 1203L11.184 1203.48C9.82302 1205.94 8.84504 1208.49 8.15704 1211.03L7.19202 1210.77L6.22604 1210.51C6.95104 1207.83 7.98603 1205.13 9.43503 1202.51L10.31 1203ZM5.72504 1221.14L6.72504 1221.17C6.68204 1222.61 6.69904 1223.99 6.75504 1225.29L5.75604 1225.33L4.75702 1225.38C4.69902 1224.03 4.68104 1222.6 4.72504 1221.11L5.72504 1221.14ZM5.75604 1225.33H6.75604V1229.23H5.75604H4.75604V1225.33H5.75604ZM5.75604 1238.97H6.75604V1246.76H5.75604H4.75604V1238.97H5.75604ZM5.75604 1256.5H6.75604V1264.3H5.75604H4.75604V1256.5H5.75604ZM5.75604 1274.04H6.75604V1281.83H5.75604H4.75604V1274.04H5.75604ZM5.75604 1291.57H6.75604V1299.36H5.75604H4.75604V1291.57H5.75604ZM5.75604 1309.1H6.75604V1316.9H5.75604H4.75604V1309.1H5.75604ZM5.75604 1326.64H6.75604V1334.43H5.75604H4.75604V1326.64H5.75604ZM5.75604 1344.17H6.75604V1351.96H5.75604H4.75604V1344.17H5.75604ZM5.75604 1361.7H6.75604V1369.5H5.75604H4.75604V1361.7H5.75604ZM5.75604 1379.24H6.75604V1387.03H5.75604H4.75604V1379.24H5.75604ZM5.75604 1396.77H6.75604V1404.56H5.75604H4.75604V1396.77H5.75604ZM5.75604 1414.3H6.75604V1422.1H5.75604H4.75604V1414.3H5.75604ZM5.75604 1431.84H6.75604V1439.63H5.75604H4.75604V1431.84H5.75604ZM5.75604 1449.37H6.75604V1457.16H5.75604H4.75604V1449.37H5.75604ZM5.75604 1466.9H6.75604V1474.7H5.75604H4.75604V1466.9H5.75604ZM5.75604 1484.44H6.75604V1488.33H5.75604H4.75604V1484.44H5.75604ZM5.75604 1488.33L6.75403 1488.26C6.84803 1489.62 6.98904 1490.92 7.17404 1492.19L6.18503 1492.33L5.19504 1492.48C5.00304 1491.16 4.85603 1489.8 4.75903 1488.4L5.75604 1488.33ZM8.69504 1502L9.62604 1501.64C10.613 1504.18 11.814 1506.48 13.186 1508.56L12.35 1509.11L11.515 1509.66C10.066 1507.46 8.80003 1505.03 7.76303 1502.36L8.69504 1502ZM18.916 1516.64L19.576 1515.89C21.563 1517.63 23.7 1519.14 25.926 1520.43L25.423 1521.3L24.92 1522.16C22.592 1520.81 20.349 1519.23 18.257 1517.39L18.916 1516.64ZM34.548 1525.39L34.866 1524.44C37.422 1525.3 39.988 1525.95 42.485 1526.41L42.301 1527.4L42.117 1528.38C39.537 1527.9 36.881 1527.23 34.23 1526.34L34.548 1525.39ZM52.261 1528.42L52.278 1527.42C53.67 1527.44 54.983 1527.41 56.193 1527.34L56.256 1528.33L56.319 1529.33C55.053 1529.41 53.687 1529.44 52.244 1529.42L52.261 1528.42ZM56.256 1528.33V1527.33H59.849V1528.33V1529.33H56.256V1528.33ZM68.83 1528.33V1527.33H76.016V1528.33V1529.33H68.83V1528.33ZM84.997 1528.33V1527.33H92.182V1528.33V1529.33H84.997V1528.33ZM101.164 1528.33V1527.33H104.756V1528.33V1529.33H101.164V1528.33Z" fill="white"/>
<path d="M6.75599 1214.33C6.75599 1214.89 6.30899 1215.33 5.75599 1215.33C5.20399 1215.33 4.75599 1214.89 4.75599 1214.33H5.75599H6.75599ZM5.75599 871.333L6.75498 871.291L6.75599 871.312V871.333H5.75599ZM105.463 828.626C105.854 829.017 105.854 829.65 105.463 830.041L99.099 836.405C98.709 836.795 98.076 836.795 97.685 836.405C97.295 836.014 97.295 835.381 97.685 834.99L103.342 829.333L97.685 823.677C97.295 823.286 97.295 822.653 97.685 822.262C98.076 821.872 98.709 821.872 99.099 822.262L105.463 828.626ZM101.164 830.333C100.611 830.333 100.164 829.886 100.164 829.333C100.164 828.781 100.611 828.333 101.164 828.333V829.333V830.333ZM92.182 828.333C92.735 828.333 93.182 828.781 93.182 829.333C93.182 829.886 92.735 830.333 92.182 830.333V829.333V828.333ZM84.997 830.333C84.445 830.333 83.997 829.886 83.997 829.333C83.997 828.781 84.445 828.333 84.997 828.333V829.333V830.333ZM76.016 828.333C76.568 828.333 77.016 828.781 77.016 829.333C77.016 829.886 76.568 830.333 76.016 830.333V829.333V828.333ZM68.83 830.333C68.278 830.333 67.83 829.886 67.83 829.333C67.83 828.781 68.278 828.333 68.83 828.333V829.333V830.333ZM59.849 828.333C60.401 828.333 60.849 828.781 60.849 829.333C60.849 829.886 60.401 830.333 59.849 830.333V829.333V828.333ZM52.094 830.408C51.543 830.428 51.079 829.997 51.059 829.445C51.038 828.893 51.47 828.429 52.021 828.409L52.058 829.409L52.094 830.408ZM41.443 829.373C41.989 829.29 42.499 829.665 42.582 830.211C42.666 830.757 42.291 831.267 41.745 831.35L41.594 830.362L41.443 829.373ZM33.666 833.086C33.135 833.238 32.582 832.93 32.43 832.399C32.279 831.868 32.587 831.315 33.118 831.163L33.392 832.125L33.666 833.086ZM23.205 835.14C23.69 834.876 24.297 835.056 24.561 835.541C24.825 836.026 24.646 836.633 24.161 836.897L23.683 836.019L23.205 835.14ZM17.486 841.574C17.076 841.943 16.443 841.91 16.074 841.499C15.705 841.089 15.738 840.457 16.149 840.087L16.817 840.831L17.486 841.574ZM9.43497 848.513C9.70297 848.03 10.312 847.856 10.795 848.123C11.278 848.391 11.452 849 11.184 849.483L10.31 848.998L9.43497 848.513ZM8.15699 857.031C8.01299 857.564 7.46398 857.88 6.93098 857.736C6.39698 857.591 6.08199 857.042 6.22599 856.509L7.19196 856.77L8.15699 857.031ZM4.72498 867.111C4.74198 866.559 5.20298 866.125 5.75498 866.142C6.30698 866.158 6.74098 866.619 6.72498 867.171L5.72498 867.141L4.72498 867.111ZM6.75599 875.345C6.75599 875.897 6.30899 876.345 5.75599 876.345C5.20399 876.345 4.75599 875.897 4.75599 875.345H5.75599H6.75599ZM4.75599 885.374C4.75599 884.822 5.20399 884.374 5.75599 884.374C6.30899 884.374 6.75599 884.822 6.75599 885.374H5.75599H4.75599ZM6.75599 893.398C6.75599 893.95 6.30899 894.398 5.75599 894.398C5.20399 894.398 4.75599 893.95 4.75599 893.398H5.75599H6.75599ZM4.75599 903.427C4.75599 902.875 5.20399 902.427 5.75599 902.427C6.30899 902.427 6.75599 902.875 6.75599 903.427H5.75599H4.75599ZM6.75599 911.45C6.75599 912.003 6.30899 912.45 5.75599 912.45C5.20399 912.45 4.75599 912.003 4.75599 911.45H5.75599H6.75599ZM4.75599 921.48C4.75599 920.927 5.20399 920.48 5.75599 920.48C6.30899 920.48 6.75599 920.927 6.75599 921.48H5.75599H4.75599ZM6.75599 929.503C6.75599 930.055 6.30899 930.503 5.75599 930.503C5.20399 930.503 4.75599 930.055 4.75599 929.503H5.75599H6.75599ZM4.75599 939.532C4.75599 938.98 5.20399 938.532 5.75599 938.532C6.30899 938.532 6.75599 938.98 6.75599 939.532H5.75599H4.75599ZM6.75599 947.556C6.75599 948.108 6.30899 948.556 5.75599 948.556C5.20399 948.556 4.75599 948.108 4.75599 947.556H5.75599H6.75599ZM4.75599 957.585C4.75599 957.033 5.20399 956.585 5.75599 956.585C6.30899 956.585 6.75599 957.033 6.75599 957.585H5.75599H4.75599ZM6.75599 965.608C6.75599 966.161 6.30899 966.608 5.75599 966.608C5.20399 966.608 4.75599 966.161 4.75599 965.608H5.75599H6.75599ZM4.75599 975.638C4.75599 975.085 5.20399 974.638 5.75599 974.638C6.30899 974.638 6.75599 975.085 6.75599 975.638H5.75599H4.75599ZM6.75599 983.661C6.75599 984.213 6.30899 984.661 5.75599 984.661C5.20399 984.661 4.75599 984.213 4.75599 983.661H5.75599H6.75599ZM4.75599 993.69C4.75599 993.138 5.20399 992.69 5.75599 992.69C6.30899 992.69 6.75599 993.138 6.75599 993.69H5.75599H4.75599ZM6.75599 1001.71C6.75599 1002.27 6.30899 1002.71 5.75599 1002.71C5.20399 1002.71 4.75599 1002.27 4.75599 1001.71H5.75599H6.75599ZM4.75599 1011.74C4.75599 1011.19 5.20399 1010.74 5.75599 1010.74C6.30899 1010.74 6.75599 1011.19 6.75599 1011.74H5.75599H4.75599ZM6.75599 1019.77C6.75599 1020.32 6.30899 1020.77 5.75599 1020.77C5.20399 1020.77 4.75599 1020.32 4.75599 1019.77H5.75599H6.75599ZM4.75599 1029.8C4.75599 1029.24 5.20399 1028.8 5.75599 1028.8C6.30899 1028.8 6.75599 1029.24 6.75599 1029.8H5.75599H4.75599ZM6.75599 1037.82C6.75599 1038.37 6.30899 1038.82 5.75599 1038.82C5.20399 1038.82 4.75599 1038.37 4.75599 1037.82H5.75599H6.75599ZM4.75599 1047.85C4.75599 1047.3 5.20399 1046.85 5.75599 1046.85C6.30899 1046.85 6.75599 1047.3 6.75599 1047.85H5.75599H4.75599ZM6.75599 1055.87C6.75599 1056.42 6.30899 1056.87 5.75599 1056.87C5.20399 1056.87 4.75599 1056.42 4.75599 1055.87H5.75599H6.75599ZM4.75599 1065.9C4.75599 1065.35 5.20399 1064.9 5.75599 1064.9C6.30899 1064.9 6.75599 1065.35 6.75599 1065.9H5.75599H4.75599ZM6.75599 1073.92C6.75599 1074.48 6.30899 1074.92 5.75599 1074.92C5.20399 1074.92 4.75599 1074.48 4.75599 1073.92H5.75599H6.75599ZM4.75599 1083.95C4.75599 1083.4 5.20399 1082.95 5.75599 1082.95C6.30899 1082.95 6.75599 1083.4 6.75599 1083.95H5.75599H4.75599ZM6.75599 1091.98C6.75599 1092.53 6.30899 1092.98 5.75599 1092.98C5.20399 1092.98 4.75599 1092.53 4.75599 1091.98H5.75599H6.75599ZM4.75599 1102.01C4.75599 1101.45 5.20399 1101.01 5.75599 1101.01C6.30899 1101.01 6.75599 1101.45 6.75599 1102.01H5.75599H4.75599ZM6.75599 1110.03C6.75599 1110.58 6.30899 1111.03 5.75599 1111.03C5.20399 1111.03 4.75599 1110.58 4.75599 1110.03H5.75599H6.75599ZM4.75599 1120.06C4.75599 1119.51 5.20399 1119.06 5.75599 1119.06C6.30899 1119.06 6.75599 1119.51 6.75599 1120.06H5.75599H4.75599ZM6.75599 1128.08C6.75599 1128.63 6.30899 1129.08 5.75599 1129.08C5.20399 1129.08 4.75599 1128.63 4.75599 1128.08H5.75599H6.75599ZM4.75599 1138.11C4.75599 1137.56 5.20399 1137.11 5.75599 1137.11C6.30899 1137.11 6.75599 1137.56 6.75599 1138.11H5.75599H4.75599ZM6.75599 1146.13C6.75599 1146.69 6.30899 1147.13 5.75599 1147.13C5.20399 1147.13 4.75599 1146.69 4.75599 1146.13H5.75599H6.75599ZM4.75599 1156.16C4.75599 1155.61 5.20399 1155.16 5.75599 1155.16C6.30899 1155.16 6.75599 1155.61 6.75599 1156.16H5.75599H4.75599ZM6.75599 1164.19C6.75599 1164.74 6.30899 1165.19 5.75599 1165.19C5.20399 1165.19 4.75599 1164.74 4.75599 1164.19H5.75599H6.75599ZM4.75599 1174.22C4.75599 1173.66 5.20399 1173.22 5.75599 1173.22C6.30899 1173.22 6.75599 1173.66 6.75599 1174.22H5.75599H4.75599ZM6.75599 1182.24C6.75599 1182.79 6.30899 1183.24 5.75599 1183.24C5.20399 1183.24 4.75599 1182.79 4.75599 1182.24H5.75599H6.75599ZM4.75599 1192.27C4.75599 1191.72 5.20399 1191.27 5.75599 1191.27C6.30899 1191.27 6.75599 1191.72 6.75599 1192.27H5.75599H4.75599ZM6.75599 1200.29C6.75599 1200.84 6.30899 1201.29 5.75599 1201.29C5.20399 1201.29 4.75599 1200.84 4.75599 1200.29H5.75599H6.75599ZM4.75599 1210.32C4.75599 1209.77 5.20399 1209.32 5.75599 1209.32C6.30899 1209.32 6.75599 1209.77 6.75599 1210.32H5.75599H4.75599ZM104.756 829.333V830.333H101.164V829.333V828.333H104.756V829.333ZM92.182 829.333V830.333H84.997V829.333V828.333H92.182V829.333ZM76.016 829.333V830.333H68.83V829.333V828.333H76.016V829.333ZM59.849 829.333V830.333H56.256V829.333V828.333H59.849V829.333ZM56.256 829.333V830.333C54.829 830.333 53.442 830.359 52.094 830.408L52.058 829.409L52.021 828.409C53.394 828.359 54.805 828.333 56.256 828.333V829.333ZM41.594 830.362L41.745 831.35C38.817 831.798 36.13 832.383 33.666 833.086L33.392 832.125L33.118 831.163C35.669 830.435 38.438 829.833 41.443 829.373L41.594 830.362ZM23.683 836.019L24.161 836.897C21.58 838.3 19.373 839.877 17.486 841.574L16.817 840.831L16.149 840.087C18.155 838.282 20.492 836.616 23.205 835.14L23.683 836.019ZM10.31 848.998L11.184 849.483C9.82297 851.939 8.84499 854.487 8.15699 857.031L7.19196 856.77L6.22599 856.509C6.95099 853.829 7.98597 851.128 9.43497 848.513L10.31 848.998ZM5.72498 867.141L6.72498 867.171C6.68198 868.606 6.69898 869.987 6.75498 871.291L5.75599 871.333L4.75697 871.376C4.69897 870.03 4.68098 868.601 4.72498 867.111L5.72498 867.141ZM5.75599 871.333H6.75599V875.345H5.75599H4.75599V871.333H5.75599ZM5.75599 885.374H6.75599V893.398H5.75599H4.75599V885.374H5.75599ZM5.75599 903.427H6.75599V911.45H5.75599H4.75599V903.427H5.75599ZM5.75599 921.48H6.75599V929.503H5.75599H4.75599V921.48H5.75599ZM5.75599 939.532H6.75599V947.556H5.75599H4.75599V939.532H5.75599ZM5.75599 957.585H6.75599V965.608H5.75599H4.75599V957.585H5.75599ZM5.75599 975.638H6.75599V983.661H5.75599H4.75599V975.638H5.75599ZM5.75599 993.69H6.75599V1001.71H5.75599H4.75599V993.69H5.75599ZM5.75599 1011.74H6.75599V1019.77H5.75599H4.75599V1011.74H5.75599ZM5.75599 1029.8H6.75599V1037.82H5.75599H4.75599V1029.8H5.75599ZM5.75599 1047.85H6.75599V1055.87H5.75599H4.75599V1047.85H5.75599ZM5.75599 1065.9H6.75599V1073.92H5.75599H4.75599V1065.9H5.75599ZM5.75599 1083.95H6.75599V1091.98H5.75599H4.75599V1083.95H5.75599ZM5.75599 1102.01H6.75599V1110.03H5.75599H4.75599V1102.01H5.75599ZM5.75599 1120.06H6.75599V1128.08H5.75599H4.75599V1120.06H5.75599ZM5.75599 1138.11H6.75599V1146.13H5.75599H4.75599V1138.11H5.75599ZM5.75599 1156.16H6.75599V1164.19H5.75599H4.75599V1156.16H5.75599ZM5.75599 1174.22H6.75599V1182.24H5.75599H4.75599V1174.22H5.75599ZM5.75599 1192.27H6.75599V1200.29H5.75599H4.75599V1192.27H5.75599ZM5.75599 1210.32H6.75599V1214.33H5.75599H4.75599V1210.32H5.75599Z" fill="white"/>
<path d="M167.701 1586.33C167.701 1585.78 168.148 1585.33 168.701 1585.33C169.253 1585.33 169.701 1585.78 169.701 1586.33H168.701H167.701ZM169.408 1726.04C169.017 1726.43 168.384 1726.43 167.994 1726.04L161.63 1719.68C161.239 1719.29 161.239 1718.65 161.63 1718.26C162.02 1717.87 162.653 1717.87 163.044 1718.26L168.701 1723.92L174.358 1718.26C174.748 1717.87 175.381 1717.87 175.772 1718.26C176.162 1718.65 176.162 1719.29 175.772 1719.68L169.408 1726.04ZM168.701 1586.33H169.701V1725.33H168.701H167.701V1586.33H168.701Z" fill="white"/>
<path d="M167.306 1228.34C167.305 1227.78 167.752 1227.33 168.305 1227.33C168.857 1227.33 169.305 1227.78 169.306 1228.33H168.306L167.306 1228.34ZM169.409 1475.04C169.019 1475.43 168.386 1475.43 167.994 1475.04L161.62 1468.69C161.229 1468.3 161.228 1467.66 161.618 1467.27C162.008 1466.88 162.641 1466.88 163.032 1467.27L168.698 1472.92L174.346 1467.25C174.736 1466.86 175.369 1466.86 175.76 1467.25C176.151 1467.64 176.152 1468.27 175.762 1468.67L169.409 1475.04ZM168.306 1228.33H169.306L169.7 1474.33H168.7L167.7 1474.34L167.306 1228.34L168.306 1228.33Z" fill="white"/>
<path d="M167.306 870.333C167.306 869.781 167.754 869.333 168.306 869.333C168.858 869.333 169.306 869.781 169.306 870.333H168.306H167.306ZM168.306 918.141H169.306V918.2L169.299 918.259L168.306 918.141ZM103.231 954.39L102.362 953.896L102.401 953.828L102.449 953.767L103.231 954.39ZM169.013 1130.04C168.623 1130.43 167.99 1130.43 167.599 1130.04L161.235 1123.68C160.845 1123.29 160.845 1122.65 161.235 1122.26C161.626 1121.87 162.259 1121.87 162.649 1122.26L168.306 1127.92L173.963 1122.26C174.354 1121.87 174.987 1121.87 175.377 1122.26C175.768 1122.65 175.768 1123.29 175.377 1123.68L169.013 1130.04ZM168.306 870.333H169.306V918.141H168.306H167.306V870.333H168.306ZM168.306 918.141L169.299 918.259C167.294 935.095 163.638 944.291 158.674 948.847C153.606 953.499 147.429 953.113 141.168 951.62C138.048 950.876 134.763 949.817 131.558 948.916C128.315 948.005 125.087 947.233 121.911 946.99C118.744 946.748 115.655 947.035 112.681 948.224C109.712 949.41 106.798 951.52 104.013 955.014L103.231 954.39L102.449 953.767C105.422 950.037 108.608 947.698 111.939 946.366C115.266 945.037 118.676 944.737 122.063 944.996C125.442 945.254 128.823 946.07 132.099 946.991C135.413 947.923 138.558 948.941 141.632 949.674C147.761 951.136 153.034 951.309 157.321 947.374C161.711 943.344 165.314 934.809 167.313 918.023L168.306 918.141ZM103.231 954.39L104.101 954.884C100.404 961.392 100.616 968.057 103.323 974.854C106.047 981.693 111.282 988.612 117.548 995.482C123.812 1002.35 131.016 1009.08 137.65 1015.59C144.253 1022.07 150.305 1028.34 154.127 1034.22L153.289 1034.77L152.45 1035.31C148.764 1029.64 142.865 1023.5 136.249 1017.01C129.665 1010.55 122.384 1003.75 116.071 996.83C109.76 989.91 104.326 982.775 101.465 975.594C98.588 968.37 98.299 961.048 102.362 953.896L103.231 954.39ZM153.289 1034.77L154.127 1034.22C169.339 1057.64 169.306 1082.67 169.306 1129.33H168.306H167.306C167.306 1082.48 167.273 1058.13 152.45 1035.31L153.289 1034.77Z" fill="white"/>
<path d="M168.306 870.333C168.306 890.931 168.306 934.415 176.388 957.873C192.836 1005.62 253.569 1033.92 245.587 1075.74C237.605 1117.55 168.306 1027.68 168.306 1096.33" stroke="white" stroke-width="2" stroke-linecap="round"/>
<path d="M168.701 559.333C168.701 590.321 189.752 582.566 191.563 612.294C193.772 648.577 168.701 699.514 168.701 742.333" stroke="white" stroke-width="2" stroke-linecap="round"/>
<path d="M168.682 559.333C168.682 592.996 226.908 571.833 225.682 619.333C224.844 651.772 168.682 695.818 168.682 742.333" stroke="white" stroke-width="2" stroke-linecap="round"/>
<path d="M168.701 559.333C168.701 596.221 246.346 554.002 244.674 617.045C243.731 652.591 168.701 691.362 168.701 742.333" stroke="white" stroke-width="2" stroke-linecap="round"/>
<path d="M168.701 559.333C168.701 590.321 143.072 582.566 140.869 612.294C138.179 648.577 168.701 699.514 168.701 742.333" stroke="white" stroke-width="2" stroke-linecap="round"/>
<path d="M168.701 559.333C168.701 592.996 110.474 571.833 111.701 619.333C112.538 651.772 168.701 695.818 168.701 742.333" stroke="white" stroke-width="2" stroke-linecap="round"/>
<path d="M168.701 559.333C168.701 596.221 91.055 554.002 92.727 617.045C93.67 652.591 168.701 691.362 168.701 742.333" stroke="white" stroke-width="2" stroke-linecap="round"/>
<path d="M167.701 543.333C167.701 542.781 168.148 542.333 168.701 542.333C169.253 542.333 169.701 542.781 169.701 543.333H168.701H167.701ZM169.408 775.041C169.017 775.431 168.384 775.431 167.994 775.041L161.63 768.677C161.239 768.286 161.239 767.653 161.63 767.262C162.02 766.872 162.653 766.872 163.044 767.262L168.701 772.919L174.358 767.262C174.748 766.872 175.381 766.872 175.772 767.262C176.162 767.653 176.162 768.286 175.772 768.677L169.408 775.041ZM168.701 543.333H169.701V774.333H168.701H167.701V543.333H168.701Z" fill="white"/>
<path d="M173.407 426.541C173.017 426.931 172.383 426.931 171.993 426.541L165.629 420.177C165.238 419.786 165.238 419.153 165.629 418.762C166.02 418.372 166.653 418.372 167.043 418.762L172.7 424.419L178.357 418.762C178.747 418.372 179.381 418.372 179.771 418.762C180.162 419.153 180.162 419.786 179.771 420.177L173.407 426.541ZM103.983 118.64L104.818 118.089L104.865 118.161L104.9 118.24L103.983 118.64ZM96.8439 58.6394L96.5619 59.5989L96.3779 59.5449L96.2269 59.4269L96.8439 58.6394ZM164.721 93.0406L165.552 93.5956L165.546 93.6045L165.54 93.6134L164.721 93.0406ZM164.721 0C167.666 0 170.054 2.38782 170.054 5.33334C170.054 8.27885 167.666 10.6666 164.721 10.6666C161.775 10.6666 159.387 8.27885 159.387 5.33334C159.387 2.38782 161.775 0 164.721 0ZM172.7 425.833H171.7C171.7 416.767 173.118 376.167 163.763 345.12L164.721 344.832L165.678 344.543C175.138 375.941 173.7 416.9 173.7 425.833H172.7ZM164.721 344.832L163.763 345.12C160.822 335.359 158.844 328.194 157.66 322.764C156.479 317.344 156.073 313.581 156.322 310.651C156.575 307.669 157.503 305.595 158.87 303.556C159.54 302.556 160.321 301.559 161.159 300.486C162.004 299.405 162.921 298.229 163.903 296.835L164.721 297.411L165.538 297.987C164.525 299.426 163.579 300.637 162.735 301.717C161.886 302.804 161.153 303.742 160.531 304.67C159.313 306.486 158.534 308.241 158.315 310.82C158.091 313.449 158.447 316.978 159.615 322.338C160.78 327.688 162.74 334.791 165.678 344.543L164.721 344.832ZM164.721 297.411L163.903 296.835C166.017 293.833 169.177 291.439 172.874 289.181C176.554 286.934 180.932 284.73 185.443 282.217C194.528 277.156 204.556 270.636 212.617 259.071L213.437 259.643L214.258 260.214C205.939 272.149 195.599 278.849 186.416 283.964C181.792 286.54 177.56 288.663 173.917 290.888C170.291 293.102 167.413 295.324 165.538 297.987L164.721 297.411ZM213.437 259.643L212.617 259.071C220.667 247.521 226.303 227.499 227.085 210.287C227.476 201.684 226.647 193.901 224.381 188.284C222.126 182.696 218.544 179.428 213.419 179.333L213.437 178.333L213.456 177.334C219.67 177.449 223.805 181.512 226.236 187.536C228.655 193.533 229.48 201.644 229.083 210.378C228.29 227.84 222.587 248.264 214.258 260.214L213.437 259.643ZM213.437 178.333L213.419 179.333C207.868 179.231 201.491 180.34 194.604 181.631C187.754 182.915 180.428 184.374 173.119 184.9C158.45 185.958 143.657 183.271 132.416 167.91L133.223 167.319L134.03 166.729C144.712 181.325 158.688 183.935 172.975 182.906C180.145 182.389 187.344 180.957 194.235 179.665C201.089 178.38 207.667 177.227 213.456 177.334L213.437 178.333ZM133.223 167.319L132.416 167.91C118.794 149.297 119.063 123.424 126.516 103.036C130.248 92.8279 135.81 83.9049 142.436 77.8898C149.064 71.8718 156.841 68.7007 164.909 70.2467L164.721 71.2288L164.532 72.211C157.271 70.8194 150.106 73.6271 143.78 79.3706C137.45 85.1169 132.044 93.738 128.394 103.723C121.083 123.722 120.932 148.832 134.03 166.729L133.223 167.319ZM164.721 71.2288L164.909 70.2467C172.89 71.7763 181.148 78.0315 189.124 85.9119C197.13 93.8228 205.02 103.547 212.227 112.236C219.478 120.977 225.984 128.599 231.305 132.496C233.984 134.458 236.152 135.314 237.842 135.127C239.41 134.954 240.909 133.825 242.152 130.844L243.075 131.229L243.998 131.614C242.616 134.928 240.656 136.829 238.061 137.115C235.587 137.388 232.887 136.133 230.123 134.109C224.559 130.034 217.881 122.185 210.688 113.513C203.451 104.789 195.637 95.1586 187.718 87.3346C179.768 79.48 171.88 73.619 164.532 72.211L164.721 71.2288ZM243.075 131.229L242.152 130.844C247.363 118.348 250.044 103.609 246.515 92.2353C244.761 86.5814 241.477 81.7686 236.197 78.4309C230.903 75.0849 223.516 73.1666 213.468 73.4771L213.437 72.4776L213.407 71.4781C223.728 71.1591 231.542 73.1226 237.265 76.7403C243.001 80.3661 246.55 85.5988 248.425 91.6426C252.156 103.665 249.287 118.931 243.998 131.614L243.075 131.229ZM213.437 72.4776L213.468 73.4771C208.333 73.6358 204.702 73.1342 202.365 72.0555C201.181 71.509 200.277 70.7905 199.704 69.885C199.124 68.9685 198.936 67.9428 199.048 66.8884C199.264 64.8462 200.605 62.6495 202.459 60.5285C204.342 58.3754 206.874 56.1655 209.701 54.0913C215.346 49.949 222.301 46.2517 227.897 44.5964C230.668 43.7766 233.256 43.4111 235.215 43.8703C236.219 44.1055 237.116 44.5714 237.756 45.3596C238.4 46.1511 238.7 47.164 238.7 48.3333H237.7H236.7C236.7 47.5092 236.493 46.9765 236.204 46.6211C235.913 46.2624 235.453 45.9803 234.759 45.8175C233.322 45.4808 231.15 45.7197 228.464 46.5143C223.145 48.0877 216.396 51.6592 210.884 55.7038C208.132 57.723 205.721 59.836 203.965 61.8449C202.18 63.8861 201.186 65.6908 201.037 67.0989C200.966 67.7697 201.088 68.3314 201.394 68.8159C201.708 69.3112 202.266 69.8071 203.203 70.2396C205.108 71.119 208.358 71.6341 213.407 71.4781L213.437 72.4776ZM237.7 48.3333H238.7C238.7 52.0263 240.386 55.9482 243.193 60.1827C245.994 64.4077 249.824 68.8188 253.957 73.4908C262.164 82.7676 271.574 93.0625 275.643 104.498L274.7 104.833L273.758 105.169C269.848 94.1776 260.757 84.1959 252.459 74.816C248.34 70.1597 244.416 65.6474 241.526 61.2878C238.642 56.9377 236.7 52.6137 236.7 48.3333H237.7ZM274.7 104.833L275.643 104.498C279.708 115.925 281.176 136.767 277.446 159.233C273.712 181.72 264.742 206 247.767 224.234L247.035 223.553L246.303 222.871C262.926 205.015 271.779 181.149 275.473 158.905C279.17 136.641 277.672 116.168 273.758 105.169L274.7 104.833ZM247.035 223.553L247.767 224.234C239.267 233.364 231.503 237.859 224.294 239.898C217.1 241.932 210.549 241.493 204.574 240.914C198.54 240.33 193.225 239.63 188.166 240.927C183.197 242.201 178.375 245.444 173.544 253.045L172.7 252.509L171.856 251.972C176.894 244.046 182.1 240.417 187.669 238.99C193.149 237.585 198.884 238.354 204.767 238.924C210.709 239.499 216.94 239.899 223.75 237.973C230.544 236.052 238.004 231.786 246.303 222.871L247.035 223.553ZM172.7 252.509L173.544 253.045C168.783 260.535 167.458 271.234 168.603 282.888C169.746 294.515 173.335 306.946 178.231 317.772C183.136 328.616 189.304 337.745 195.54 342.852C198.655 345.403 201.714 346.892 204.582 347.168C207.407 347.439 210.16 346.547 212.751 344.104L213.437 344.832L214.123 345.56C211.15 348.362 207.84 349.49 204.391 349.158C200.986 348.831 197.562 347.093 194.272 344.399C187.699 339.015 181.373 329.574 176.409 318.596C171.435 307.6 167.78 294.957 166.613 283.084C165.448 271.238 166.748 260.009 171.856 251.972L172.7 252.509ZM213.437 344.832L212.751 344.104C218.3 338.874 223.756 333.317 228.283 327.927C232.821 322.524 236.377 317.348 238.181 312.879C239.995 308.385 239.932 304.914 237.794 302.539C235.573 300.072 230.821 298.411 222.257 298.411V297.411V296.411C230.912 296.411 236.449 298.056 239.281 301.201C242.196 304.439 241.948 308.889 240.036 313.628C238.113 318.39 234.397 323.758 229.814 329.214C225.22 334.683 219.704 340.299 214.123 345.56L213.437 344.832ZM222.257 297.411V298.411C205.393 298.411 190.76 308.687 178.222 316.616C172.031 320.531 166.271 323.922 161.089 324.948C158.466 325.468 155.938 325.394 153.554 324.446C151.17 323.497 149.025 321.711 147.103 318.968L147.922 318.394L148.741 317.82C150.493 320.322 152.351 321.815 154.293 322.588C156.235 323.36 158.356 323.451 160.701 322.987C165.454 322.045 170.902 318.879 177.153 314.926C189.498 307.118 204.683 296.411 222.257 296.411V297.411ZM147.922 318.394L147.103 318.968C145.186 316.232 144.3 313.715 144.331 311.358C144.361 308.992 145.315 306.924 146.813 305.093C149.753 301.498 154.981 298.601 160.205 295.796C165.531 292.937 170.916 290.144 174.586 286.738C176.405 285.049 177.747 283.256 178.451 281.291C179.149 279.344 179.245 277.16 178.464 274.625L179.42 274.33L180.375 274.036C181.275 276.956 181.187 279.585 180.334 281.966C179.488 284.328 177.913 286.378 175.946 288.204C172.043 291.827 166.378 294.752 161.151 297.558C155.824 300.418 150.999 303.134 148.361 306.359C147.07 307.937 146.354 309.581 146.33 311.384C146.307 313.198 146.983 315.311 148.741 317.82L147.922 318.394ZM179.42 274.33L178.464 274.625C176.786 269.177 175.711 264.896 174.765 261.654C173.802 258.355 172.96 256.086 171.727 254.346C169.305 250.93 165.204 249.305 154.412 246.768L154.641 245.794L154.87 244.821C165.497 247.319 170.425 249.051 173.358 253.189C174.802 255.226 175.719 257.783 176.685 261.094C177.668 264.461 178.693 268.573 180.375 274.036L179.42 274.33ZM154.641 245.794L154.412 246.768C149.168 245.535 143.098 245.145 137.476 245.526C131.835 245.909 126.753 247.06 123.437 248.827C121.778 249.711 120.651 250.702 120.067 251.739C119.511 252.728 119.401 253.84 119.934 255.156C120.486 256.52 121.742 258.127 123.992 259.952C126.232 261.769 129.397 263.751 133.669 265.882L133.223 266.777L132.776 267.672C128.426 265.501 125.124 263.444 122.732 261.505C120.351 259.574 118.81 257.71 118.08 255.907C117.331 254.056 117.454 252.305 118.324 250.758C119.167 249.26 120.661 248.041 122.496 247.062C126.168 245.105 131.569 243.922 137.341 243.531C143.132 243.138 149.405 243.536 154.87 244.821L154.641 245.794ZM133.223 266.777L133.669 265.882C151.071 274.563 159.75 286.785 159.965 296.918C160.073 302.021 158.019 306.542 153.913 309.651C149.833 312.741 143.823 314.365 136.107 313.937L136.162 312.938L136.218 311.94C143.621 312.351 149.114 310.776 152.706 308.056C156.273 305.355 158.061 301.457 157.965 296.96C157.773 287.894 149.863 276.196 132.776 267.672L133.223 266.777ZM136.162 312.938L136.107 313.937C128.459 313.512 120.831 311.975 113.802 310.339C106.733 308.694 100.339 306.968 95.0039 306.11C92.3459 305.682 90.0109 305.481 88.0389 305.605C86.0649 305.729 84.5319 306.174 83.4099 306.968C81.2579 308.492 80.1499 311.69 81.2909 318.222L80.3059 318.394L79.3209 318.566C78.1519 311.879 79.0909 307.576 82.2549 305.336C83.7899 304.248 85.7319 303.746 87.9139 303.609C90.0969 303.472 92.5979 303.697 95.3209 304.135C100.748 305.008 107.294 306.771 114.255 308.391C121.256 310.02 128.747 311.525 136.218 311.94L136.162 312.938ZM80.3059 318.394L81.2909 318.222C83.5849 331.352 88.5679 342.518 94.8249 348.015C97.9259 350.739 101.272 352.017 104.747 351.571C108.245 351.122 112.08 348.901 116.081 344.185L116.844 344.832L117.606 345.479C113.418 350.415 109.168 353.02 105.002 353.555C100.812 354.092 96.9139 352.512 93.5049 349.517C86.7439 343.578 81.6459 331.874 79.3209 318.566L80.3059 318.394ZM116.844 344.832L116.081 344.185C120.176 339.358 123.982 334.772 127.065 330.413C130.151 326.047 132.469 321.966 133.631 318.155C134.786 314.365 134.786 310.89 133.298 307.658C131.802 304.406 128.737 301.262 123.489 298.281L123.983 297.411L124.477 296.542C129.939 299.645 133.383 303.058 135.115 306.822C136.857 310.607 136.804 314.606 135.544 318.738C134.291 322.848 131.832 327.133 128.698 331.567C125.559 336.007 121.7 340.654 117.606 345.479L116.844 344.832ZM123.983 297.411L123.489 298.281C118.258 295.308 110.217 292.82 101.41 290.294C92.6599 287.785 83.2009 285.251 75.3239 282.187C71.3809 280.653 67.7939 278.972 64.8639 277.071C61.9419 275.174 59.6069 273.017 58.2559 270.502C56.8849 267.951 56.5649 265.1 57.5619 261.951C58.5459 258.84 60.7979 255.48 64.4799 251.801L65.1869 252.509L65.8939 253.216C62.3309 256.776 60.3179 259.868 59.4679 262.554C58.6309 265.201 58.9079 267.491 60.0179 269.556C61.1469 271.657 63.1759 273.591 65.9529 275.393C68.7219 277.19 72.1699 278.814 76.0489 280.323C83.8159 283.344 93.1499 285.845 101.961 288.372C110.714 290.882 118.999 293.429 124.477 296.542L123.983 297.411ZM65.1869 252.509L64.4799 251.801C71.7469 244.54 78.4009 238.68 84.2029 234.424C89.9809 230.186 95.0029 227.473 98.9939 226.614C101.001 226.182 102.831 226.201 104.385 226.813C105.966 227.436 107.15 228.63 107.912 230.322C109.394 233.61 109.321 238.85 107.741 246.01L106.764 245.794L105.788 245.579C107.357 238.47 107.284 233.796 106.089 231.143C105.513 229.865 104.688 229.082 103.652 228.674C102.587 228.254 101.188 228.188 99.4149 228.569C95.8469 229.337 91.1039 231.843 85.3859 236.037C79.6909 240.214 73.1159 245.999 65.8939 253.216L65.1869 252.509ZM106.764 245.794L107.741 246.01C106.038 253.722 98.9489 258.076 90.3629 259.714C81.7409 261.357 71.2949 260.348 62.2219 257.068C53.1719 253.797 45.2829 248.187 42.0579 240.455C38.7949 232.63 40.4399 222.979 49.7239 211.996L50.4879 212.642L51.2519 213.287C42.2669 223.916 41.0249 232.783 43.9039 239.685C46.8209 246.68 54.1039 252.007 62.9019 255.188C71.6779 258.36 81.7589 259.318 89.9879 257.749C98.2529 256.173 104.341 252.135 105.788 245.579L106.764 245.794ZM50.4879 212.642L49.7239 211.996C58.8599 201.189 66.5759 192.398 73.2649 185.806C79.9379 179.23 85.6729 174.756 90.8539 172.685C96.1199 170.581 100.837 170.955 105.276 174.053C109.621 177.085 113.624 182.675 117.736 190.787L116.844 191.239L115.952 191.691C111.874 183.647 108.055 178.431 104.132 175.693C100.302 173.021 96.3049 172.661 91.5959 174.542C86.8029 176.458 81.3039 180.692 74.6689 187.23C68.0499 193.753 60.3849 202.482 51.2519 213.287L50.4879 212.642ZM116.844 191.239L117.736 190.787C125.751 206.6 141.087 215.375 156.463 218.428C164.147 219.953 171.805 220.04 178.507 218.876C185.221 217.709 190.905 215.3 194.712 211.896L195.379 212.642L196.045 213.387C191.873 217.118 185.797 219.639 178.849 220.846C171.889 222.055 163.982 221.959 156.074 220.389C140.267 217.252 124.315 208.192 115.952 191.691L116.844 191.239ZM195.379 212.642L194.712 211.896C195.677 211.033 196.238 210.361 196.509 209.869C196.642 209.628 196.682 209.471 196.691 209.385C196.698 209.314 196.684 209.299 196.684 209.298C196.665 209.265 196.505 209.07 195.841 208.912C195.216 208.763 194.327 208.693 193.172 208.721C188.536 208.834 180.533 210.503 171.2 213.278C161.896 216.045 151.361 219.885 141.695 224.284C132.014 228.691 123.268 233.63 117.495 238.58L116.844 237.821L116.193 237.062C122.179 231.93 131.124 226.898 140.867 222.464C150.624 218.023 161.246 214.152 170.63 211.361C179.986 208.579 188.205 206.841 193.123 206.721C194.357 206.691 195.44 206.761 196.304 206.966C197.129 207.163 197.977 207.536 198.417 208.301C198.897 209.136 198.691 210.053 198.261 210.834C197.83 211.617 197.075 212.467 196.045 213.387L195.379 212.642ZM116.844 237.821L117.495 238.58C105.816 248.592 93.8449 263.378 88.2499 275.593C85.4329 281.743 84.3409 287.007 85.4369 290.647C85.9699 292.419 87.0269 293.827 88.7279 294.812C90.4539 295.813 92.9069 296.411 96.2649 296.411V297.411V298.411C92.6929 298.411 89.8569 297.778 87.7249 296.543C85.5679 295.293 84.1959 293.464 83.5219 291.224C82.2029 286.841 83.5779 280.988 86.4309 274.76C92.1749 262.221 104.353 247.212 116.193 237.062L116.844 237.821ZM96.2649 297.411V296.411C110.01 296.411 119.887 292.342 123.856 286.858C125.802 284.169 126.352 281.121 125.261 277.904C124.154 274.64 121.319 271.097 116.274 267.599L116.844 266.777L117.413 265.955C122.658 269.591 125.86 273.444 127.155 277.262C128.465 281.126 127.781 284.845 125.476 288.031C120.94 294.297 110.238 298.411 96.2649 298.411V297.411ZM116.844 266.777L116.274 267.599C111.256 264.12 104.265 261.403 96.8129 258.844C89.4169 256.305 81.5589 253.919 75.0299 251.12C68.5389 248.336 63.0509 245.024 60.6229 240.454C58.1089 235.724 59.0279 230.021 64.3899 222.948L65.1869 223.553L65.9839 224.157C60.8459 230.933 60.3999 235.773 62.3889 239.515C64.4619 243.417 69.3419 246.504 75.8179 249.281C82.2559 252.042 89.9619 254.377 97.4619 256.953C104.906 259.508 112.142 262.3 117.413 265.955L116.844 266.777ZM65.1869 223.553L64.3899 222.948C69.8389 215.761 77.1669 212.599 84.9809 211.378C92.7569 210.163 101.096 210.86 108.625 211.435C112.411 211.724 115.987 211.982 119.239 211.971C122.494 211.96 125.355 211.677 127.719 210.916C130.064 210.161 131.889 208.948 133.144 207.08C134.407 205.198 135.162 202.547 135.162 198.793H136.162H137.162C137.162 202.802 136.356 205.882 134.804 208.194C133.244 210.519 131 211.961 128.332 212.82C125.682 213.672 122.585 213.959 119.246 213.971C115.902 213.983 112.247 213.717 108.473 213.429C100.883 212.85 92.7909 212.182 85.2899 213.354C77.8269 214.52 71.0339 217.495 65.9839 224.157L65.1869 223.553ZM136.162 198.793H135.162C135.162 168.316 112.672 148.107 86.6229 144.389L86.7639 143.399L86.9059 142.409C113.773 146.244 137.162 167.161 137.162 198.793H136.162ZM86.7639 143.399L86.6229 144.389C80.1869 143.47 71.0999 144.333 61.3539 146.711C51.6259 149.086 41.3299 152.949 32.4939 157.96C23.6399 162.981 16.3479 169.098 12.4969 175.934C8.68692 182.698 8.21192 190.208 13.0579 198.278L12.1999 198.793L11.3429 199.308C6.1099 190.592 6.60791 182.313 10.7549 174.953C14.8599 167.664 22.5079 161.324 31.5079 156.22C40.5249 151.107 50.9969 147.181 60.8799 144.768C70.7449 142.361 80.1129 141.439 86.9059 142.409L86.7639 143.399ZM12.1999 198.793L13.0579 198.278C23.0929 214.991 35.9069 229.312 47.0059 236.169C52.5759 239.609 57.5329 241.058 61.4239 240.229C65.2019 239.425 68.3049 236.389 70.0309 230.006L70.9969 230.267L71.9619 230.528C70.1189 237.344 66.6069 241.171 61.8409 242.186C57.1889 243.176 51.6719 241.401 45.9549 237.87C34.4819 230.783 21.4669 216.168 11.3429 199.308L12.1999 198.793ZM70.9969 230.267L70.0309 230.006C73.6189 216.74 77.1289 204.58 75.5009 192.754C73.8859 181.034 67.1859 169.499 49.9219 157.652L50.4879 156.828L51.0539 156.003C68.6479 168.077 75.7709 180.061 77.4819 192.481C79.1779 204.796 75.5139 217.394 71.9619 230.528L70.9969 230.267ZM50.4879 156.828L49.9219 157.652C40.8789 151.447 36.7329 141.333 35.7779 130.345C34.8239 119.359 37.0409 107.38 40.8509 97.2013C44.6479 87.0601 50.0969 78.5182 55.7569 74.5689C58.6069 72.5809 61.6389 71.6727 64.5739 72.5129C67.4959 73.3493 70.0379 75.839 72.0969 80.0082L71.1999 80.451L70.3039 80.8938C68.3729 76.9847 66.1869 75.0549 64.0239 74.4357C61.8739 73.8202 59.4659 74.4202 56.9019 76.2091C51.7359 79.8135 46.4689 87.9002 42.7239 97.9024C38.9939 107.868 36.8469 119.546 37.7709 130.172C38.6939 140.796 42.6679 150.249 51.0539 156.003L50.4879 156.828ZM71.1999 80.451L72.0969 80.0082C76.0559 88.0246 80.6359 95.0599 84.9349 101.571C89.2189 108.06 93.2519 114.068 96.0289 119.943C98.8139 125.837 100.379 131.684 99.6609 137.869C98.9429 144.056 95.9569 150.453 89.8819 157.482L89.1249 156.828L88.3689 156.174C94.2629 149.354 97.0159 143.319 97.6749 137.638C98.3339 131.955 96.9139 126.497 94.2199 120.798C91.5179 115.08 87.5789 109.207 83.2659 102.673C78.9669 96.162 74.3239 89.034 70.3039 80.8938L71.1999 80.451ZM89.1249 156.828L89.8819 157.482C78.1599 171.044 78.2849 185.487 83.2689 194.315C85.7689 198.744 89.4579 201.719 93.4629 202.589C97.4259 203.451 101.878 202.29 106.055 198.088L106.764 198.793L107.474 199.498C102.89 204.109 97.7649 205.571 93.0379 204.544C88.3519 203.526 84.2389 200.101 81.5269 195.298C76.0859 185.661 76.1519 170.309 88.3689 156.174L89.1249 156.828ZM106.764 198.793L106.055 198.088C114.6 189.492 118.121 179.6 117.403 166.956C116.68 154.24 111.668 138.745 103.067 119.04L103.983 118.64L104.9 118.24C113.517 137.982 118.656 153.751 119.399 166.843C120.147 180.008 116.449 190.469 107.474 199.498L106.764 198.793ZM103.983 118.64L103.148 119.19C89.1379 97.9375 84.3439 80.4649 84.5989 69.3439C84.7259 63.8242 86.1039 59.6651 88.4579 57.4948C89.6629 56.3837 91.1169 55.8057 92.7129 55.8728C94.2859 55.939 95.8949 56.6272 97.4599 57.8518L96.8439 58.6394L96.2269 59.4269C94.8879 58.3784 93.6689 57.9148 92.6289 57.8711C91.6099 57.8282 90.6629 58.182 89.8139 58.965C88.0589 60.5828 86.7209 64.0605 86.5989 69.3897C86.3559 79.9666 90.9419 97.0403 104.818 118.089L103.983 118.64ZM96.8439 58.6394L97.1249 57.6799C104.685 59.8994 113.29 64.9999 120.736 71.5187C128.18 78.0357 134.565 86.0561 137.584 94.1873C140.617 102.357 140.27 110.733 134.059 117.666C127.92 124.52 116.203 129.777 96.9699 132.221L96.8439 131.229L96.7179 130.237C115.786 127.814 126.912 122.647 132.57 116.332C138.155 110.097 138.559 102.561 135.709 94.8834C132.845 87.1684 126.713 79.4089 119.419 73.0236C112.127 66.64 103.772 61.7157 96.5619 59.5989L96.8439 58.6394ZM96.8439 131.229L96.9699 132.221C73.0429 135.262 53.8769 137.73 39.1759 138.883C31.8239 139.46 25.5639 139.711 20.3659 139.538C15.1799 139.364 10.9889 138.767 7.80692 137.612C4.60892 136.452 2.34292 134.692 1.18192 132.155C0.0319153 129.644 0.0559182 126.561 1.00992 122.935C2.90892 115.717 8.6539 105.778 17.7439 92.4763L18.5699 93.0406L19.3959 93.6048C10.2849 106.935 4.74291 116.607 2.94391 123.444C2.04891 126.846 2.12091 129.402 2.99991 131.323C3.86791 133.22 5.61192 134.688 8.48892 135.732C11.3819 136.782 15.3309 137.368 20.4329 137.539C25.5239 137.709 31.7009 137.464 39.0199 136.89C53.6599 135.74 72.7669 133.281 96.7179 130.237L96.8439 131.229ZM18.5699 93.0406L17.7439 92.4763C41.1609 58.2149 65.9509 44.256 85.0479 41.5609C94.5869 40.2148 102.728 41.6797 108.526 44.8719C114.322 48.0628 117.844 53.0371 117.844 58.6394H116.844H115.844C115.844 53.9602 112.909 49.5679 107.562 46.6239C102.217 43.6812 94.5299 42.2427 85.3279 43.5413C66.9429 46.1358 42.5959 59.659 19.3959 93.6048L18.5699 93.0406ZM116.844 58.6394H117.844C117.844 59.6905 118.169 60.3602 118.69 60.8201C119.246 61.3116 120.147 61.6701 121.484 61.8192C124.172 62.1188 128.137 61.5235 133.065 60.2549C142.881 57.7285 155.993 52.6804 169.197 47.6886C182.352 42.715 195.603 37.7958 205.571 35.6041C210.533 34.5133 214.828 34.062 217.931 34.7073C219.5 35.0336 220.852 35.6578 221.811 36.7068C222.785 37.7713 223.257 39.1664 223.257 40.8333H222.257H221.257C221.257 39.559 220.906 38.6804 220.335 38.0566C219.75 37.4172 218.837 36.9385 217.524 36.6654C214.862 36.1119 210.922 36.4754 206.001 37.5575C196.204 39.7115 183.101 44.57 169.904 49.5594C156.755 54.5306 143.513 59.6309 133.564 62.1918C128.61 63.4669 124.339 64.1499 121.262 63.8068C119.717 63.6345 118.353 63.1914 117.365 62.3191C116.342 61.415 115.844 60.1586 115.844 58.6394H116.844ZM222.257 40.8333H223.257C223.257 43.6539 224.007 48.2566 225.315 54.326C226.618 60.3683 228.453 67.7762 230.582 76.1653C234.838 92.9319 240.264 113.59 244.915 134.928C249.565 156.264 253.449 178.32 254.615 197.898C255.779 217.432 254.25 234.682 247.913 246.274L247.035 245.794L246.158 245.314C252.209 234.246 253.778 217.485 252.619 198.017C251.462 178.592 247.603 156.652 242.961 135.354C238.32 114.059 232.905 93.4451 228.644 76.6573C226.514 68.2692 224.671 60.8293 223.36 54.7474C222.055 48.6927 221.257 43.895 221.257 40.8333H222.257ZM247.035 245.794L247.913 246.274C246.374 249.088 245.305 251.303 244.634 252.976C243.942 254.699 243.733 255.708 243.762 256.179C243.775 256.403 243.827 256.265 243.639 256.136C243.459 256.012 243.354 256.102 243.563 256.042C243.989 255.917 244.777 255.434 245.918 254.441C250.381 250.558 258.329 240.636 265.832 227.835C273.326 215.05 280.305 199.514 282.917 184.443C285.528 169.371 283.752 154.918 273.958 144.069L274.7 143.399L275.443 142.729C285.807 154.211 287.555 169.388 284.887 184.784C282.22 200.18 275.117 215.95 267.558 228.846C260.008 241.727 251.931 251.862 247.231 255.95C246.08 256.951 245.006 257.705 244.121 257.962C243.675 258.092 243.053 258.159 242.508 257.785C241.955 257.406 241.795 256.79 241.765 256.299C241.707 255.337 242.086 253.956 242.777 252.231C243.489 250.457 244.599 248.165 246.158 245.314L247.035 245.794ZM274.7 143.399L273.958 144.069C268.957 138.529 264.874 135.457 261.483 134.181C258.17 132.934 255.5 133.391 253.13 135.026C250.685 136.712 248.501 139.696 246.386 143.629C244.279 147.546 242.304 152.282 240.217 157.368C236.068 167.48 231.493 178.965 224.675 187.454C217.802 196.011 208.584 201.602 195.244 199.784L195.379 198.793L195.514 197.802C208.001 199.504 216.573 194.348 223.116 186.201C229.714 177.985 234.182 166.807 238.367 156.608C240.447 151.539 242.46 146.706 244.625 142.682C246.78 138.674 249.148 135.343 251.994 133.38C254.914 131.365 258.274 130.837 262.187 132.309C266.023 133.753 270.365 137.104 275.443 142.729L274.7 143.399ZM195.379 198.793L195.244 199.784C190.572 199.147 187.431 197.983 185.75 196.075C183.972 194.058 184.044 191.501 185.022 188.77C185.995 186.051 187.95 182.893 190.364 179.365C191.578 177.591 192.924 175.7 194.341 173.704C195.76 171.706 197.254 169.598 198.771 167.377C210.917 149.6 224.449 124.803 212.503 93.3961L213.437 93.0406L214.372 92.6851C226.689 125.066 212.645 150.617 200.422 168.505C198.894 170.743 197.391 172.864 195.972 174.862C194.551 176.863 193.216 178.738 192.015 180.494C189.597 184.028 187.782 186.995 186.905 189.444C186.033 191.88 186.176 193.534 187.25 194.753C188.42 196.08 190.912 197.175 195.514 197.802L195.379 198.793ZM213.437 93.0406L212.503 93.3961C210.113 87.113 213.013 81.5256 218.126 77.2315C223.232 72.943 230.728 69.7495 238.196 68.0622C245.648 66.3786 253.263 66.1517 258.604 67.9862C261.287 68.9078 263.496 70.3859 264.751 72.5665C266.018 74.7682 266.214 77.5134 265.209 80.7476L264.254 80.451L263.299 80.1544C264.185 77.3037 263.938 75.1635 263.017 73.564C262.085 71.9434 260.361 70.7045 257.954 69.8777C253.116 68.2156 245.923 68.3669 238.637 70.013C231.368 71.6553 224.199 74.7427 219.412 78.7631C214.631 82.7778 212.41 87.5271 214.372 92.6851L213.437 93.0406ZM264.254 80.451L265.209 80.7476C264.142 84.1836 261.408 86.4502 257.655 87.7807C253.922 89.1041 249.082 89.5443 243.547 89.304C232.464 88.8227 218.282 85.5966 203.83 80.7873C189.366 75.9742 174.569 69.5547 162.243 62.6461C149.959 55.7609 139.987 48.3122 135.333 41.3914L136.162 40.8333L136.992 40.2752C141.367 46.7795 150.976 54.038 163.221 60.9015C175.425 67.7415 190.104 74.112 204.461 78.8896C218.829 83.6709 232.813 86.836 243.634 87.3059C249.05 87.5411 253.598 87.0968 256.986 85.8956C260.355 84.7016 262.477 82.8034 263.299 80.1544L264.254 80.451ZM136.162 40.8333L135.333 41.3914C134.232 39.7546 133.318 38.8198 132.607 38.3802C131.948 37.9722 131.594 38.0522 131.342 38.2109C130.974 38.4419 130.527 39.032 130.12 40.1855C129.724 41.304 129.418 42.8002 129.216 44.6193C128.406 51.9121 129.331 63.7226 131.888 74.9C133.164 80.4796 134.838 85.8658 136.886 90.425C138.941 95.0012 141.335 98.6603 144.006 100.874C146.631 103.05 149.486 103.812 152.662 102.726C155.93 101.609 159.695 98.4865 163.901 92.4678L164.721 93.0406L165.54 93.6134C161.242 99.7646 157.171 103.299 153.309 104.619C149.356 105.97 145.787 104.949 142.729 102.414C139.718 99.9176 137.17 95.9394 135.061 91.2443C132.945 86.5321 131.234 81.0129 129.938 75.3459C127.35 64.0303 126.385 51.9834 127.228 44.3984C127.44 42.498 127.769 40.836 128.234 39.519C128.687 38.2372 129.327 37.1147 130.277 36.5176C131.342 35.8482 132.536 35.9846 133.659 36.6791C134.731 37.3419 135.836 38.5557 136.992 40.2752L136.162 40.8333ZM164.721 93.0406L163.889 92.4856C167.622 86.8905 169.721 78.989 170.68 70.1056C171.636 61.2419 171.445 51.5032 170.675 42.3147C169.905 33.1297 168.558 24.5211 167.213 17.9273C166.541 14.6298 165.871 11.8453 165.277 9.75013C164.979 8.70182 164.704 7.83572 164.459 7.16888C164.206 6.47968 164.011 6.07123 163.889 5.88833L164.721 5.33334L165.552 4.77834C165.815 5.17246 166.077 5.77315 166.337 6.48023C166.604 7.20968 166.895 8.12702 167.201 9.20435C167.812 11.3604 168.494 14.1959 169.173 17.5277C170.532 24.1922 171.891 32.8785 172.668 42.1477C173.444 51.4134 173.642 61.2882 172.668 70.3201C171.696 79.3322 169.547 87.6083 165.552 93.5956L164.721 93.0406Z" fill="white"/>
</g>
<defs>
<clipPath id="clip0_8_2">
<rect width="286" height="1727" fill="white" transform="matrix(-1 0 0 1 286 0)"/>
</clipPath>
</defs>
</svg>
