<svg width="40" height="40" viewBox="0 0 40 40" fill="none" xmlns="http://www.w3.org/2000/svg">
<path d="M19.9997 36.6666C29.2044 36.6666 36.6663 29.2047 36.6663 20C36.6663 10.7952 29.2044 3.33331 19.9997 3.33331C10.7949 3.33331 3.33301 10.7952 3.33301 20C3.33301 29.2047 10.7949 36.6666 19.9997 36.6666Z" stroke="#E77625" stroke-width="2.5" stroke-linecap="round" stroke-linejoin="round"/>
<path d="M20 30C25.5228 30 30 25.5228 30 20C30 14.4772 25.5228 10 20 10C14.4772 10 10 14.4772 10 20C10 25.5228 14.4772 30 20 30Z" stroke="#E77625" stroke-width="2.5" stroke-linecap="round" stroke-linejoin="round"/>
<path d="M20.0003 23.3334C21.8413 23.3334 23.3337 21.841 23.3337 20C23.3337 18.1591 21.8413 16.6667 20.0003 16.6667C18.1594 16.6667 16.667 18.1591 16.667 20C16.667 21.841 18.1594 23.3334 20.0003 23.3334Z" stroke="#E77625" stroke-width="2.5" stroke-linecap="round" stroke-linejoin="round"/>
</svg>
