<svg width="80" height="80" viewBox="0 0 80 80" fill="none" xmlns="http://www.w3.org/2000/svg">
<path d="M43.3336 23.3333L29.0003 9.00001C27.4949 7.50187 25.4575 6.66083 23.3336 6.66083C21.2098 6.66083 19.1724 7.50187 17.667 9.00001L9.00032 17.6667C7.50217 19.1721 6.66113 21.2095 6.66113 23.3333C6.66113 25.4572 7.50217 27.4946 9.00032 29L23.3336 43.3333" stroke="#E77625" stroke-width="3.33333" stroke-linecap="round" stroke-linejoin="round"/>
<path d="M26.667 20L33.3337 13.3333" stroke="#E77625" stroke-width="3.33333" stroke-linecap="round" stroke-linejoin="round"/>
<path d="M60 53.3334L66.6667 46.6667" stroke="#E77625" stroke-width="3.33333" stroke-linecap="round" stroke-linejoin="round"/>
<path d="M56.667 36.6667L71.0003 51C74.1337 54.1334 74.1337 59.2 71.0003 62.3334L62.3337 71C59.2003 74.1334 54.1337 74.1334 51.0003 71L36.667 56.6667" stroke="#E77625" stroke-width="3.33333" stroke-linecap="round" stroke-linejoin="round"/>
<path d="M70.5801 22.7067C72.3425 20.9448 73.3327 18.5549 73.333 16.0629C73.3334 13.5708 72.3437 11.1807 70.5818 9.41834C68.8199 7.65598 66.43 6.66572 63.938 6.66541C61.4459 6.66509 59.0558 7.65475 57.2934 9.41668L12.8068 53.9133C12.0328 54.685 11.4605 55.6351 11.1401 56.68L6.73677 71.1867C6.65062 71.475 6.64412 71.7812 6.71794 72.0728C6.79177 72.3645 6.94317 72.6308 7.15609 72.8434C7.36901 73.0559 7.63551 73.2069 7.9273 73.2803C8.21909 73.3536 8.5253 73.3466 8.81344 73.26L23.3234 68.86C24.3673 68.5425 25.3174 67.9736 26.0901 67.2033L70.5801 22.7067Z" stroke="#E77625" stroke-width="3.33333" stroke-linecap="round" stroke-linejoin="round"/>
<path d="M50 16.6667L63.3333 30" stroke="#E77625" stroke-width="3.33333" stroke-linecap="round" stroke-linejoin="round"/>
</svg>
