<svg width="40" height="40" viewBox="0 0 40 40" fill="none" xmlns="http://www.w3.org/2000/svg">
<path d="M20 26.6667V35" stroke="#E77625" stroke-width="2.5" stroke-linecap="round" stroke-linejoin="round"/>
<path d="M26.667 23.3333V35" stroke="#E77625" stroke-width="2.5" stroke-linecap="round" stroke-linejoin="round"/>
<path d="M33.333 16.6667V35" stroke="#E77625" stroke-width="2.5" stroke-linecap="round" stroke-linejoin="round"/>
<path d="M36.6663 5L22.2563 19.41C22.1789 19.4876 22.087 19.5492 21.9857 19.5912C21.8845 19.6332 21.776 19.6548 21.6663 19.6548C21.5567 19.6548 21.4482 19.6332 21.347 19.5912C21.2457 19.5492 21.1538 19.4876 21.0763 19.41L15.5897 13.9233C15.4334 13.7671 15.2215 13.6793 15.0005 13.6793C14.7795 13.6793 14.5676 13.7671 14.4113 13.9233L3.33301 25" stroke="#E77625" stroke-width="2.5" stroke-linecap="round" stroke-linejoin="round"/>
<path d="M6.66699 30V35" stroke="#E77625" stroke-width="2.5" stroke-linecap="round" stroke-linejoin="round"/>
<path d="M13.333 23.3333V35" stroke="#E77625" stroke-width="2.5" stroke-linecap="round" stroke-linejoin="round"/>
</svg>
