<svg width="80" height="80" viewBox="0 0 80 80" fill="none" xmlns="http://www.w3.org/2000/svg">
<rect x="1" y="1" width="78" height="78" rx="15" stroke="#E77625" stroke-opacity="0.2" stroke-width="2"/>
<path d="M54.8873 45.5906C53.7881 44.8477 52.2813 45.1213 51.4885 46.1733C48.1708 50.6129 43.3689 54.5119 36.5939 54.5119C29.8189 54.5119 29.4112 42.7191 33.4879 35.0545C35.988 30.3547 39.5039 26.4757 42.5761 26.5002C44.736 26.5002 45.9636 28.3863 45.3667 30.3992C44.6437 32.8369 44.5739 34.4717 44.5739 34.5985C44.5153 36.0398 45.6708 37.252 47.1888 37.2965C47.2249 37.2965 47.2474 37.3098 47.2947 37.3098C48.7429 37.3098 49.9344 36.2 50.0042 34.792C50.0042 34.7475 50.2858 29.8387 54.3264 24.6585C55.3085 23.3996 54.9233 21.558 53.439 20.7795C52.2475 20.15 50.716 20.5615 49.8984 21.6158C49.6776 21.9116 49.4547 22.2097 49.2452 22.4966C49.0357 22.7924 48.6258 22.8969 48.288 22.7479C36.3146 17.5544 29.5283 28.5242 27.285 33.5687C22.6249 44.047 22.6249 60.5173 36.0218 60.5173C47.2474 60.5173 52.5516 53.4042 55.6125 48.8513C56.3243 47.7859 56.0315 46.3691 54.9458 45.6484C54.9346 45.6484 54.9098 45.6239 54.8985 45.6128L54.8873 45.5906Z" fill="#E2723A"/>
</svg>
