<svg width="80" height="80" viewBox="0 0 80 80" fill="none" xmlns="http://www.w3.org/2000/svg">
<path d="M40.0001 16.6667C40.004 15.3334 39.7413 14.0129 39.2274 12.7827C38.7135 11.5525 37.9588 10.4374 37.0076 9.50316C36.0565 8.56889 34.9282 7.83425 33.6889 7.34244C32.4497 6.85064 31.1247 6.6116 29.7917 6.63938C28.4588 6.66716 27.1449 6.96121 25.9272 7.50423C24.7096 8.04724 23.6128 8.82826 22.7014 9.80135C21.79 10.7744 21.0824 11.92 20.6203 13.1705C20.1581 14.4211 19.9506 15.7514 20.0101 17.0833C18.0508 17.5871 16.2318 18.5302 14.6909 19.841C13.15 21.1519 11.9275 22.7962 11.1162 24.6495C10.3049 26.5027 9.92595 28.5163 10.008 30.5377C10.0901 32.5591 10.6311 34.5353 11.5901 36.3167C9.90402 37.6864 8.57817 39.4474 7.72788 41.4465C6.87759 43.4455 6.52861 45.622 6.7113 47.7866C6.89399 49.9513 7.60281 52.0385 8.7761 53.8667C9.9494 55.695 11.5516 57.2089 13.4434 58.2767C13.2098 60.0841 13.3492 61.9203 13.853 63.6717C14.3569 65.4232 15.2144 67.0528 16.3727 68.4599C17.531 69.8669 18.9655 71.0216 20.5875 71.8525C22.2095 72.6835 23.9847 73.1731 25.8033 73.2911C27.622 73.4091 29.4456 73.1531 31.1614 72.5387C32.8772 71.9244 34.4489 70.9648 35.7793 69.7192C37.1097 68.4736 38.1707 66.9686 38.8966 65.2969C39.6226 63.6252 39.9981 61.8225 40.0001 60V16.6667Z" stroke="#E77625" stroke-width="3.33333" stroke-linecap="round" stroke-linejoin="round"/>
<path d="M30 43.3333C32.7985 42.3489 35.2423 40.5567 37.0222 38.1834C38.8022 35.81 39.8385 32.9622 40 30" stroke="#E77625" stroke-width="3.33333" stroke-linecap="round" stroke-linejoin="round"/>
<path d="M20.0098 17.0833C20.0757 18.6958 20.5309 20.2683 21.3364 21.6666" stroke="#E77625" stroke-width="3.33333" stroke-linecap="round" stroke-linejoin="round"/>
<path d="M11.5898 36.32C12.1996 35.8234 12.8522 35.3816 13.5398 35" stroke="#E77625" stroke-width="3.33333" stroke-linecap="round" stroke-linejoin="round"/>
<path d="M20 60C17.7028 60.0011 15.4442 59.4086 13.4434 58.28" stroke="#E77625" stroke-width="3.33333" stroke-linecap="round" stroke-linejoin="round"/>
<path d="M40 43.3333H53.3333" stroke="#E77625" stroke-width="3.33333" stroke-linecap="round" stroke-linejoin="round"/>
<path d="M40 60H60C61.7681 60 63.4638 60.7024 64.714 61.9526C65.9643 63.2029 66.6667 64.8986 66.6667 66.6667V70" stroke="#E77625" stroke-width="3.33333" stroke-linecap="round" stroke-linejoin="round"/>
<path d="M40 26.6667H66.6667" stroke="#E77625" stroke-width="3.33333" stroke-linecap="round" stroke-linejoin="round"/>
<path d="M53.333 26.6667V16.6667C53.333 14.8986 54.0354 13.2029 55.2856 11.9526C56.5359 10.7024 58.2316 10 59.9997 10" stroke="#E77625" stroke-width="3.33333" stroke-linecap="round" stroke-linejoin="round"/>
<path d="M53.3337 45C54.2541 45 55.0003 44.2538 55.0003 43.3334C55.0003 42.4129 54.2541 41.6667 53.3337 41.6667C52.4132 41.6667 51.667 42.4129 51.667 43.3334C51.667 44.2538 52.4132 45 53.3337 45Z" stroke="#E77625" stroke-width="3.33333" stroke-linecap="round" stroke-linejoin="round"/>
<path d="M59.9997 11.6666C60.9201 11.6666 61.6663 10.9205 61.6663 9.99998C61.6663 9.07951 60.9201 8.33331 59.9997 8.33331C59.0792 8.33331 58.333 9.07951 58.333 9.99998C58.333 10.9205 59.0792 11.6666 59.9997 11.6666Z" stroke="#E77625" stroke-width="3.33333" stroke-linecap="round" stroke-linejoin="round"/>
<path d="M66.6667 71.6666C67.5871 71.6666 68.3333 70.9205 68.3333 70C68.3333 69.0795 67.5871 68.3333 66.6667 68.3333C65.7462 68.3333 65 69.0795 65 70C65 70.9205 65.7462 71.6666 66.6667 71.6666Z" stroke="#E77625" stroke-width="3.33333" stroke-linecap="round" stroke-linejoin="round"/>
<path d="M66.6667 28.3333C67.5871 28.3333 68.3333 27.5871 68.3333 26.6667C68.3333 25.7462 67.5871 25 66.6667 25C65.7462 25 65 25.7462 65 26.6667C65 27.5871 65.7462 28.3333 66.6667 28.3333Z" stroke="#E77625" stroke-width="3.33333" stroke-linecap="round" stroke-linejoin="round"/>
</svg>
