<svg width="80" height="80" viewBox="0 0 80 80" fill="none" xmlns="http://www.w3.org/2000/svg">
<rect x="1" y="1" width="78" height="78" rx="15" stroke="#E77625" stroke-opacity="0.2" stroke-width="2"/>
<path d="M46.0813 27.1678H56.6406V29.9232H46.0813V27.1678Z" fill="#E2723A"/>
<path d="M34.2686 48.3118C33.641 48.6401 32.7573 48.7917 31.6152 48.7917H26.0795V41.4531H31.7013C32.8139 41.483 33.6976 41.6322 34.3253 41.933L34.2981 41.9032C35.4379 42.4405 35.9817 43.4301 35.9817 44.8675C35.9817 46.5736 35.4107 47.7125 34.2686 48.3118ZM26.0501 30.8219H30.9309C32.1862 30.8219 33.2422 30.9712 34.0398 31.2398C34.9824 31.66 35.4379 32.4981 35.4379 33.7863C35.4379 34.955 35.0957 35.7633 34.3819 36.211C33.6704 36.6611 32.7573 36.8999 31.6152 36.8999H26.0501V30.8219ZM40.4615 41.1546C39.7772 40.0456 38.7779 39.2373 37.4364 38.7276C38.3202 38.2775 38.9773 37.7402 39.435 37.1708C40.2621 36.1513 40.6609 34.7438 40.6609 33.1273C40.6609 31.5108 40.2621 30.1032 39.4622 28.9345C38.1208 27.0172 35.8661 26.0597 32.6712 26H20V53.5539H31.8146C33.1561 53.5539 34.3819 53.4322 35.524 53.1934C36.666 52.9546 37.6653 52.5045 38.4924 51.8157C39.2333 51.2462 39.861 50.5275 40.3482 49.6596L40.3187 49.5999C41.1186 48.3118 41.4879 46.8445 41.4879 45.1959C41.4879 43.6092 41.1458 42.2614 40.4615 41.1546Z" fill="#E2723A"/>
<path d="M48.4801 37.8591C49.1644 37.1106 50.1637 36.7203 51.419 36.7203C52.5905 36.7203 53.5604 37.0808 54.3308 37.7994C55.1012 38.5181 55.5567 39.5353 55.6428 40.913H47.1681C47.3381 39.6272 47.7958 38.6077 48.4801 37.8591ZM54.4735 48.3113C53.7598 48.9106 52.8466 49.2113 51.734 49.2113C50.6781 49.2113 49.7649 48.9703 49.0217 48.4605L49.0511 48.4904C47.7958 47.712 47.1681 46.3044 47.082 44.3274H60.7797C60.8091 42.6214 60.7502 41.3034 60.6075 40.4056C60.3514 38.8786 59.8665 37.4987 59.0961 36.3322C58.2395 34.9844 57.1564 34.0246 55.8422 33.3977C54.5302 32.7686 53.046 32.4678 51.419 32.4678C48.6523 32.4678 46.4249 33.3656 44.6847 35.1933C42.9444 37.0211 42.0879 39.657 42.0879 43.0714C42.0879 46.7246 43.0577 49.3606 44.9702 50.9771C46.8826 52.5936 49.0783 53.4041 51.5913 53.4041C54.6163 53.4041 56.9842 52.4443 58.6678 50.527C59.7532 49.3307 60.3514 48.1322 60.4942 46.9634H55.4706C55.1873 47.5329 54.8429 47.9829 54.4735 48.3113Z" fill="#E2723A"/>
</svg>
