<svg width="80" height="80" viewBox="0 0 80 80" fill="none" xmlns="http://www.w3.org/2000/svg">
<path d="M40.1131 42.27C39.9929 41.9686 39.9638 41.6385 40.0292 41.3206C40.0947 41.0028 40.2518 40.711 40.4813 40.4816C40.7108 40.2521 41.0025 40.0949 41.3204 40.0295C41.6382 39.964 41.9683 39.9932 42.2698 40.1134L72.2698 51.78C72.5914 51.9057 72.8661 52.1282 73.0558 52.4167C73.2455 52.7052 73.3409 53.0456 73.3288 53.3907C73.3168 53.7358 73.1978 54.0686 72.9884 54.3432C72.7789 54.6177 72.4894 54.8205 72.1598 54.9233L60.6798 58.4834C60.1618 58.6435 59.6907 58.9276 59.3073 59.3109C58.924 59.6943 58.6399 60.1654 58.4798 60.6834L54.9231 72.16C54.8202 72.4897 54.6175 72.7792 54.3429 72.9886C54.0684 73.198 53.7355 73.317 53.3904 73.3291C53.0453 73.3412 52.705 73.2457 52.4165 73.056C52.1279 72.8663 51.9055 72.5917 51.7798 72.27L40.1131 42.27Z" stroke="#E77625" stroke-width="3.33333" stroke-linecap="round" stroke-linejoin="round"/>
<path d="M16.667 56.6667C16.667 46.058 20.8813 35.8839 28.3827 28.3824C35.8842 20.881 46.0583 16.6667 56.667 16.6667" stroke="#E77625" stroke-width="3.33333" stroke-linecap="round" stroke-linejoin="round"/>
<path d="M63.3337 23.3333C67.0156 23.3333 70.0003 20.3486 70.0003 16.6667C70.0003 12.9848 67.0156 10 63.3337 10C59.6518 10 56.667 12.9848 56.667 16.6667C56.667 20.3486 59.6518 23.3333 63.3337 23.3333Z" stroke="#E77625" stroke-width="3.33333" stroke-linecap="round" stroke-linejoin="round"/>
<path d="M16.6667 70C20.3486 70 23.3333 67.0153 23.3333 63.3334C23.3333 59.6515 20.3486 56.6667 16.6667 56.6667C12.9848 56.6667 10 59.6515 10 63.3334C10 67.0153 12.9848 70 16.6667 70Z" stroke="#E77625" stroke-width="3.33333" stroke-linecap="round" stroke-linejoin="round"/>
</svg>
