<?xml version="1.0" encoding="UTF-8" standalone="no"?>
<!DOCTYPE svg PUBLIC "-//W3C//DTD SVG 1.1//EN" "http://www.w3.org/Graphics/SVG/1.1/DTD/svg11.dtd">
<svg width="100%" height="100%" viewBox="0 0 145 58" version="1.1" xmlns="http://www.w3.org/2000/svg" xmlns:xlink="http://www.w3.org/1999/xlink" xml:space="preserve" xmlns:serif="http://www.serif.com/" style="fill-rule:evenodd;clip-rule:evenodd;stroke-linejoin:round;stroke-miterlimit:2;">
    <g transform="matrix(1,0,0,1,-12.019167,-53.909167)">
        <g transform="matrix(4.166667,0,0,4.166667,1,0)">
            <g transform="matrix(0.24,0,0,0.24,-0.24,0)">
                <path d="M76.019,111.818C77.832,111.813 79.294,110.347 79.286,108.538L79.173,57.201C79.169,55.397 77.711,53.934 75.902,53.934L31.023,53.909C20.553,53.909 12.032,63.043 12.032,74.276C12.032,85.505 20.553,94.643 31.023,94.643L43.136,94.643C44.944,94.643 46.407,93.18 46.407,91.372C46.407,89.563 44.944,88.097 43.136,88.097L31.023,88.097C24.161,88.097 18.582,81.897 18.582,74.276C18.582,66.655 24.161,60.455 31.023,60.455L72.636,60.48L72.74,108.551C72.744,110.359 74.211,111.818 76.015,111.818L76.019,111.818Z" style="fill:#E2723A;"/>
            </g>
        </g>
        <g transform="matrix(4.166667,0,0,4.166667,1,0)">
            <g transform="matrix(0.24,0,0,0.24,-0.24,0)">
                <path d="M48.228,111.851C58.698,111.851 67.219,102.713 67.219,91.484C67.219,80.251 58.698,71.113 48.228,71.113L36.115,71.113C34.307,71.113 32.844,72.58 32.844,74.388C32.844,76.197 34.307,77.663 36.115,77.663L48.228,77.663C55.09,77.663 60.669,83.863 60.669,91.484C60.669,99.105 55.09,105.305 48.228,105.305L15.294,105.334C13.482,105.338 12.019,106.805 12.019,108.613C12.023,110.418 13.486,111.884 15.294,111.884L15.298,111.884L48.228,111.851Z" style="fill:#E2723A;"/>
            </g>
        </g>
        <g transform="matrix(4.166667,0,0,4.166667,1,0)">
            <g transform="matrix(0.24,0,0,0.24,-0.24,0)">
                <path d="M156.011,110.63C157.148,109.222 156.932,107.163 155.528,106.026L139.361,92.934C143.682,92.468 147.111,91.126 149.723,88.901C153.332,85.822 155.19,81.28 155.403,75.013C155.598,69.301 153.636,64.013 149.873,60.122C146.057,56.172 140.823,53.997 135.132,53.997L112.294,53.997C111.423,53.997 110.59,54.338 109.978,54.955L83.832,81.147C83.182,81.797 82.84,82.688 82.877,83.605C82.919,84.517 83.34,85.38 84.044,85.968L113.957,111.076C114.94,111.901 116.315,112.08 117.473,111.522C118.627,110.972 119.357,109.793 119.336,108.509L118.778,77.634L137.369,77.634C139.173,77.634 140.64,76.168 140.64,74.359C140.64,72.555 139.173,71.088 137.369,71.088L115.444,71.088C114.565,71.088 113.723,71.443 113.111,72.067C112.494,72.692 112.157,73.543 112.173,74.422L112.661,101.438L90.986,83.247L113.648,60.543L135.132,60.543C139.032,60.543 142.594,62.009 145.169,64.672C147.719,67.309 148.998,70.809 148.861,74.788C148.711,79.113 147.607,82.101 145.473,83.918C142.632,86.343 137.511,87.109 130.265,86.205C128.84,86.026 127.423,86.826 126.853,88.172C126.278,89.513 126.665,91.076 127.803,91.997L151.407,111.113C152.015,111.605 152.74,111.843 153.465,111.843C154.415,111.843 155.365,111.426 156.011,110.63Z" style="fill:#E2723A;"/>
            </g>
        </g>
    </g>
</svg>
