<svg width="80" height="80" viewBox="0 0 80 80" fill="none" xmlns="http://www.w3.org/2000/svg">
<rect x="1" y="1" width="78" height="78" rx="15" stroke="#E77625" stroke-opacity="0.2" stroke-width="2"/>
<path d="M42.6044 48.2642C38.3944 48.2642 36.8269 45.4735 36.8269 45.4735C36.8269 45.4735 36.076 48.4635 35.5221 50.6215C34.966 52.747 34.8675 52.7817 34.3465 53.9777C33.7597 55.3383 32.2579 57.4638 31.8332 58.0965C31.4742 58.6273 31.0494 59.0585 30.8218 58.9913C30.559 58.9588 30.559 58.6598 30.4956 58.0965C30.397 57.3317 30.1672 54.7078 30.2985 52.981C30.3642 51.8522 30.7561 49.8913 30.7561 49.8913L33.5956 38.0678C31.8332 34.4148 33.2694 28.7338 37.2516 28.7338C40.0911 28.7338 40.8092 31.3252 39.9597 34.4473C39.5679 35.8427 38.3616 39.7622 38.3287 39.9268C38.2959 40.1262 38.1974 40.4923 38.2302 40.891C38.2302 42.0198 39.0797 44.3772 42.0505 44.3772C46.8472 44.3772 49.0999 37.1708 49.0999 32.3868C49.0999 28.5345 46.6852 23.8523 39.6335 23.8523C32.5841 23.8523 28.4705 29.4315 28.4705 34.5145C28.4705 37.3702 29.5804 38.5315 30.1037 39.1642C30.5284 39.6625 30.2985 40.1608 30.2985 40.1608L29.841 42.0198C29.679 42.6178 29.1229 42.9493 28.372 42.4857C27.6232 42.0523 24 40.4923 24 33.8493C24 27.2063 30.2985 20 40.0583 20C47.7951 20 54.6497 24.9487 54.6497 32.9848C54.6497 42.9168 48.546 48.2317 42.5715 48.2317L42.6044 48.2642Z" fill="#E2723A"/>
</svg>
