<svg width="512" height="512" viewBox="0 0 512 512" fill="none" xmlns="http://www.w3.org/2000/svg">
<g clip-path="url(#clip0_133_6970)">
<rect width="512" height="512" fill="#FFD8BC"/>
<path d="M512 0H0V512H512V0Z" fill="white"/>
<path d="M388.208 234.615H318.895V320L239.5 256.796L307.772 192.5H382.855C411.098 192.5 432 205.488 432 232.463C432 263.824 409.39 271.371 386.935 271.371H357.41C357.41 271.371 432 263.75 432 320" stroke="#E2723A" stroke-width="15" stroke-miterlimit="1.5" stroke-linecap="round" stroke-linejoin="round"/>
<path d="M144.5 275L125.914 275.655C95.75 275.655 79.5 257.594 79.5 233.75C79.5 211.255 93.25 193.755 125.914 192.5H214.5V320" stroke="#E2723A" stroke-width="15" stroke-miterlimit="1.5" stroke-linecap="round" stroke-linejoin="round"/>
<path d="M79.5 320.005H97H145.75C168.532 320.005 187 301.537 187 278.755C187 255.973 168.532 237.505 145.75 237.505H122" stroke="#E2723A" stroke-width="15" stroke-linecap="round"/>
</g>
<defs>
<clipPath id="clip0_133_6970">
<rect width="512" height="512" fill="white"/>
</clipPath>
</defs>
</svg>
