<svg width="80" height="80" viewBox="0 0 80 80" fill="none" xmlns="http://www.w3.org/2000/svg">
<path d="M20 60H46.6667" stroke="#E77625" stroke-width="3.33333" stroke-linecap="round" stroke-linejoin="round"/>
<path d="M10 73.3333H70" stroke="#E77625" stroke-width="3.33333" stroke-linecap="round" stroke-linejoin="round"/>
<path d="M46.6663 73.3334C52.8547 73.3334 58.7896 70.875 63.1655 66.4992C67.5413 62.1233 69.9997 56.1884 69.9997 50C69.9997 43.8116 67.5413 37.8767 63.1655 33.5009C58.7896 29.125 52.8547 26.6667 46.6663 26.6667H43.333" stroke="#E77625" stroke-width="3.33333" stroke-linecap="round" stroke-linejoin="round"/>
<path d="M30 46.6667H36.6667" stroke="#E77625" stroke-width="3.33333" stroke-linecap="round" stroke-linejoin="round"/>
<path d="M29.9997 40C28.2316 40 26.5359 39.2976 25.2856 38.0474C24.0354 36.7971 23.333 35.1014 23.333 33.3333V20H43.333V33.3333C43.333 35.1014 42.6306 36.7971 41.3804 38.0474C40.1301 39.2976 38.4345 40 36.6663 40H29.9997Z" stroke="#E77625" stroke-width="3.33333" stroke-linecap="round" stroke-linejoin="round"/>
<path d="M40.0003 20V10C40.0003 9.11597 39.6491 8.26812 39.024 7.643C38.3989 7.01788 37.551 6.66669 36.667 6.66669H30.0003C29.1163 6.66669 28.2684 7.01788 27.6433 7.643C27.0182 8.26812 26.667 9.11597 26.667 10V20" stroke="#E77625" stroke-width="3.33333" stroke-linecap="round" stroke-linejoin="round"/>
</svg>
